<svg width="165" height="42" viewBox="0 0 165 42" fill="none" xmlns="http://www.w3.org/2000/svg">
<path d="M18.8397 3.5C15.6619 3.5 13.0952 6.04123 13.0952 9.1875C13.0952 12.3096 15.6619 14.8508 18.8152 14.875C18.033 14.8508 17.4219 14.2216 17.4219 13.4471C17.4219 12.6726 18.0575 12.0192 18.8641 12.0192C22.2863 12.0192 29.8886 12.0192 33.2375 12.0192C35.6086 12.0192 37.5397 10.1072 37.5397 7.7596C37.5397 5.41197 35.6086 3.5 33.2375 3.5L18.8397 3.5Z" fill="black" fill-opacity="0.26"/>
<path opacity="0.9" d="M11.8555 14.875C8.67775 14.875 6.11108 17.4162 6.11108 20.5625C6.11108 23.6846 8.67775 26.2258 11.8311 26.25C11.0489 26.2258 10.4378 25.5966 10.4378 24.8221C10.4378 24.0476 11.0733 23.3942 11.88 23.3942C15.3022 23.3942 22.9044 23.3942 26.2533 23.3942C28.6244 23.3942 30.5555 21.4822 30.5555 19.1346C30.5555 16.787 28.6244 14.875 26.2533 14.875L11.8555 14.875Z" fill="black" fill-opacity="0.26"/>
<path opacity="0.8" d="M7.02781 26.25C3.62304 26.25 0.873047 28.9867 0.873047 32.375C0.873047 35.7373 3.62304 38.4739 7.0016 38.5C6.16352 38.4739 5.50876 37.7963 5.50876 36.9622C5.50876 36.1282 6.18973 35.4245 7.05402 35.4245C10.7207 35.4245 18.8659 35.4245 22.454 35.4245C24.9945 35.4245 27.0635 33.3654 27.0635 30.8373C27.0635 28.309 24.9945 26.25 22.454 26.25L7.02781 26.25Z" fill="black" fill-opacity="0.26"/>
<path d="M46.2524 29.6705V11.2955H58.0382V14.4455H49.7096V18.8292H57.3048V21.9792H49.7096V26.5205H58.1953V29.6705H46.2524Z" fill="black" fill-opacity="0.26"/>
<path d="M59.5496 34.9205V16.6505H62.7973V18.2255H63.2687C63.5655 17.718 64.0282 17.2717 64.6568 16.8867C65.2853 16.4842 66.1846 16.283 67.3544 16.283C68.402 16.283 69.3711 16.5455 70.2615 17.0705C71.152 17.578 71.8679 18.3305 72.4092 19.328C72.9504 20.3255 73.2211 21.533 73.2211 22.9505V23.3705C73.2211 24.788 72.9504 25.9955 72.4092 26.993C71.8679 27.9905 71.152 28.7517 70.2615 29.2767C69.3711 29.7842 68.402 30.038 67.3544 30.038C66.5687 30.038 65.9052 29.9417 65.3639 29.7492C64.8401 29.5742 64.4123 29.3467 64.0806 29.0667C63.7663 28.7692 63.5131 28.4717 63.3211 28.1742H62.8496V34.9205H59.5496ZM66.3592 27.1505C67.3893 27.1505 68.2361 26.8267 68.8996 26.1792C69.5806 25.5142 69.9211 24.5517 69.9211 23.2917V23.0292C69.9211 21.7692 69.5806 20.8155 68.8996 20.168C68.2187 19.503 67.3719 19.1705 66.3592 19.1705C65.3465 19.1705 64.4996 19.503 63.8187 20.168C63.1377 20.8155 62.7973 21.7692 62.7973 23.0292V23.2917C62.7973 24.5517 63.1377 25.5142 63.8187 26.1792C64.4996 26.8267 65.3465 27.1505 66.3592 27.1505Z" fill="black" fill-opacity="0.26"/>
<path d="M74.9417 29.6705V16.6505H78.2417V29.6705H74.9417ZM76.5917 15.128C75.998 15.128 75.4917 14.9355 75.0726 14.5505C74.671 14.1655 74.4702 13.658 74.4702 13.028C74.4702 12.398 74.671 11.8905 75.0726 11.5055C75.4917 11.1205 75.998 10.928 76.5917 10.928C77.2028 10.928 77.7091 11.1205 78.1107 11.5055C78.5123 11.8905 78.7131 12.398 78.7131 13.028C78.7131 13.658 78.5123 14.1655 78.1107 14.5505C77.7091 14.9355 77.2028 15.128 76.5917 15.128Z" fill="black" fill-opacity="0.26"/>
<path d="M86.6914 30.038C85.4342 30.038 84.2906 29.7755 83.2604 29.2505C82.2477 28.7255 81.4445 27.9642 80.8509 26.9667C80.2572 25.9692 79.9604 24.7617 79.9604 23.3442V22.9767C79.9604 21.5592 80.2572 20.3517 80.8509 19.3542C81.4445 18.3567 82.2477 17.5955 83.2604 17.0705C84.2906 16.5455 85.4342 16.283 86.6914 16.283C87.931 16.283 88.9961 16.5017 89.8866 16.9392C90.7771 17.3767 91.4929 17.9805 92.0342 18.7505C92.5929 19.503 92.9596 20.3605 93.1342 21.323L89.939 22.0055C89.8691 21.4805 89.712 21.008 89.4675 20.588C89.2231 20.168 88.8739 19.8355 88.4199 19.5905C87.9834 19.3455 87.4334 19.223 86.7699 19.223C86.1064 19.223 85.5041 19.3717 84.9628 19.6692C84.439 19.9492 84.0199 20.378 83.7056 20.9555C83.4088 21.5155 83.2604 22.2067 83.2604 23.0292V23.2917C83.2604 24.1142 83.4088 24.8142 83.7056 25.3917C84.0199 25.9517 84.439 26.3805 84.9628 26.678C85.5041 26.958 86.1064 27.098 86.7699 27.098C87.7652 27.098 88.516 26.8442 89.0223 26.3367C89.5461 25.8117 89.8779 25.1292 90.0176 24.2892L93.2128 25.0505C92.9858 25.978 92.5929 26.8267 92.0342 27.5967C91.4929 28.3492 90.7771 28.9442 89.8866 29.3817C88.9961 29.8192 87.931 30.038 86.6914 30.038Z" fill="black" fill-opacity="0.26"/>
<path d="M99.5754 29.8805C98.5627 29.8805 97.6723 29.653 96.904 29.198C96.1532 28.7255 95.5683 28.078 95.1492 27.2555C94.7302 26.433 94.5207 25.488 94.5207 24.4205V16.6505H97.8207V24.158C97.8207 25.138 98.0564 25.873 98.5278 26.363C99.0167 26.853 99.7064 27.098 100.597 27.098C101.61 27.098 102.395 26.7655 102.954 26.1005C103.513 25.418 103.792 24.473 103.792 23.2655V16.6505H107.092V29.6705H103.844V27.9642H103.373C103.164 28.4017 102.771 28.8305 102.194 29.2505C101.618 29.6705 100.745 29.8805 99.5754 29.8805Z" fill="black" fill-opacity="0.26"/>
<path d="M109.455 29.6705V16.6505H112.702V18.1205H113.174C113.366 17.5955 113.68 17.2105 114.117 16.9655C114.571 16.7205 115.094 16.598 115.688 16.598H117.26V19.538H115.636C114.798 19.538 114.108 19.7655 113.567 20.2205C113.025 20.658 112.755 21.3405 112.755 22.268V29.6705H109.455Z" fill="black" fill-opacity="0.26"/>
<path d="M118.529 29.6705V16.6505H121.829V29.6705H118.529ZM120.179 15.128C119.586 15.128 119.079 14.9355 118.66 14.5505C118.259 14.1655 118.058 13.658 118.058 13.028C118.058 12.398 118.259 11.8905 118.66 11.5055C119.079 11.1205 119.586 10.928 120.179 10.928C120.79 10.928 121.297 11.1205 121.698 11.5055C122.1 11.8905 122.301 12.398 122.301 13.028C122.301 13.658 122.1 14.1655 121.698 14.5505C121.297 14.9355 120.79 15.128 120.179 15.128Z" fill="black" fill-opacity="0.26"/>
<path d="M130.358 30.038C129.066 30.038 127.904 29.7755 126.874 29.2505C125.844 28.7255 125.032 27.9642 124.439 26.9667C123.845 25.9692 123.548 24.7705 123.548 23.3705V22.9505C123.548 21.5505 123.845 20.3517 124.439 19.3542C125.032 18.3567 125.844 17.5955 126.874 17.0705C127.904 16.5455 129.066 16.283 130.358 16.283C131.65 16.283 132.811 16.5455 133.841 17.0705C134.871 17.5955 135.683 18.3567 136.277 19.3542C136.87 20.3517 137.167 21.5505 137.167 22.9505V23.3705C137.167 24.7705 136.87 25.9692 136.277 26.9667C135.683 27.9642 134.871 28.7255 133.841 29.2505C132.811 29.7755 131.65 30.038 130.358 30.038ZM130.358 27.098C131.37 27.098 132.208 26.7742 132.872 26.1267C133.535 25.4617 133.867 24.5167 133.867 23.2917V23.0292C133.867 21.8042 133.535 20.868 132.872 20.2205C132.226 19.5555 131.388 19.223 130.358 19.223C129.345 19.223 128.507 19.5555 127.843 20.2205C127.18 20.868 126.848 21.8042 126.848 23.0292V23.2917C126.848 24.5167 127.18 25.4617 127.843 26.1267C128.507 26.7742 129.345 27.098 130.358 27.098Z" fill="black" fill-opacity="0.26"/>
<path d="M143.854 29.8805C142.841 29.8805 141.951 29.653 141.182 29.198C140.431 28.7255 139.847 28.078 139.428 27.2555C139.008 26.433 138.799 25.488 138.799 24.4205V16.6505H142.099V24.158C142.099 25.138 142.335 25.873 142.806 26.363C143.295 26.853 143.985 27.098 144.875 27.098C145.888 27.098 146.674 26.7655 147.232 26.1005C147.791 25.418 148.07 24.473 148.07 23.2655V16.6505H151.37V29.6705H148.123V27.9642H147.651C147.442 28.4017 147.049 28.8305 146.473 29.2505C145.897 29.6705 145.024 29.8805 143.854 29.8805Z" fill="black" fill-opacity="0.26"/>
<path d="M159.128 30.038C157.435 30.038 156.047 29.6705 154.964 28.9355C153.881 28.2005 153.227 27.1505 153 25.7855L156.038 24.998C156.16 25.6105 156.361 26.0917 156.64 26.4417C156.937 26.7917 157.295 27.0455 157.714 27.203C158.151 27.343 158.622 27.413 159.128 27.413C159.897 27.413 160.464 27.2817 160.831 27.0192C161.197 26.7392 161.381 26.398 161.381 25.9955C161.381 25.593 161.206 25.2867 160.857 25.0767C160.508 24.8492 159.949 24.6655 159.181 24.5255L158.447 24.3942C157.539 24.2192 156.71 23.983 155.959 23.6855C155.208 23.3705 154.606 22.9417 154.152 22.3992C153.698 21.8567 153.471 21.1567 153.471 20.2992C153.471 19.0042 153.943 18.0155 154.885 17.333C155.828 16.633 157.068 16.283 158.604 16.283C160.054 16.283 161.258 16.6067 162.219 17.2542C163.179 17.9017 163.808 18.7505 164.104 19.8005L161.04 20.7455C160.901 20.0805 160.612 19.608 160.176 19.328C159.757 19.048 159.233 18.908 158.604 18.908C157.976 18.908 157.496 19.0217 157.164 19.2492C156.832 19.4592 156.666 19.7567 156.666 20.1417C156.666 20.5617 156.841 20.8767 157.19 21.0867C157.539 21.2792 158.011 21.428 158.604 21.533L159.338 21.6642C160.316 21.8392 161.197 22.0755 161.983 22.373C162.786 22.653 163.415 23.0642 163.869 23.6067C164.34 24.1317 164.576 24.8492 164.576 25.7592C164.576 27.1242 164.078 28.183 163.083 28.9355C162.105 29.6705 160.787 30.038 159.128 30.038Z" fill="black" fill-opacity="0.26"/>
</svg>
