<svg width="144" height="42" viewBox="0 0 144 42" fill="none" xmlns="http://www.w3.org/2000/svg">
<path d="M13.7143 29.25C21.2885 29.25 27.4286 23.0939 27.4286 15.5C27.4286 14.6394 27.3497 13.7972 27.1988 12.9803C26.3841 12.8291 25.5441 12.75 24.6857 12.75C17.1115 12.75 10.9714 18.9061 10.9714 26.5C10.9714 27.3606 11.0503 28.2028 11.2012 29.0197C12.0159 29.1709 12.8559 29.25 13.7143 29.25Z" fill="black" fill-opacity="0.26"/>
<path opacity="0.8" fill-rule="evenodd" clip-rule="evenodd" d="M11.2012 29.0197C4.82721 27.8362 0 22.2333 0 15.5C0 7.90609 6.1401 1.75 13.7143 1.75C20.4301 1.75 26.0184 6.58978 27.1988 12.9803C26.3841 12.8291 25.5441 12.75 24.6857 12.75C17.1115 12.75 10.9714 18.9061 10.9714 26.5C10.9714 27.3606 11.0503 28.2028 11.2012 29.0197Z" fill="black" fill-opacity="0.26"/>
<path opacity="0.6" fill-rule="evenodd" clip-rule="evenodd" d="M13.7143 29.2499C21.2885 29.2499 27.4286 23.0938 27.4286 15.4999C27.4286 14.6392 27.3497 13.7971 27.1988 12.9802C33.5728 14.1637 38.4 19.7666 38.4 26.4999C38.4 34.0938 32.2599 40.2499 24.6857 40.2499C17.9699 40.2499 12.3816 35.4101 11.2012 29.0195C12.0159 29.1708 12.8559 29.2499 13.7143 29.2499Z" fill="black" fill-opacity="0.26"/>
<path d="M58.9525 29.96C63.6391 29.96 67.0165 27.3087 67.3569 23.3712H63.4296C63.1154 25.2612 61.3089 26.5475 58.9525 26.5475C55.994 26.5475 53.7161 24.5 53.7161 20.5625C53.7161 16.625 55.994 14.5512 58.9525 14.5512C61.2565 14.5512 63.0631 15.8375 63.3249 17.7537H67.4354C66.938 13.79 63.5605 11.165 58.9525 11.165C54.0565 11.165 49.7627 14.3675 49.7627 20.5625C49.7627 26.7575 53.978 29.96 58.9525 29.96Z" fill="black" fill-opacity="0.26"/>
<path d="M74.6452 16.31C71.0322 16.31 68.8852 18.4362 68.7281 21.0875H71.9747C72.0271 19.985 72.8387 18.9875 74.4358 18.9875C75.9281 18.9875 76.7921 19.7487 76.7921 20.8512C76.7921 21.4025 76.4518 21.8225 75.7972 21.8225H73.5718C70.6918 21.8225 68.7543 23.3975 68.7543 25.9962C68.7543 28.2537 70.5085 29.96 73.0743 29.96C74.8809 29.96 76.3471 29.1462 76.7921 27.9125V29.75H80.4052V21.245C80.4052 18.2525 77.9703 16.31 74.6452 16.31ZM73.9907 27.3087C72.9696 27.3087 72.2365 26.705 72.2365 25.8387C72.2365 24.815 73.022 24.1325 74.1216 24.1325H76.7921V24.3162C76.7921 25.9962 75.7711 27.3087 73.9907 27.3087Z" fill="black" fill-opacity="0.26"/>
<path d="M82.851 35.105H86.4903V28.5687C87.1972 29.4612 88.4801 29.96 89.9724 29.96C93.7688 29.96 96.3346 27.2562 96.3346 23.135C96.3346 19.0137 93.9783 16.31 90.2866 16.31C88.5848 16.31 87.2757 16.94 86.4903 17.9637V16.52H82.851V35.105ZM89.5274 26.81C87.5637 26.81 86.2808 25.34 86.2808 23.135C86.2808 20.9037 87.5637 19.4337 89.5274 19.4337C91.4386 19.4337 92.7477 20.9037 92.7477 23.135C92.7477 25.34 91.4386 26.81 89.5274 26.81Z" fill="black" fill-opacity="0.26"/>
<path d="M102.743 29.96C105.832 29.96 107.874 28.3062 107.874 25.7862C107.874 19.8012 100.648 22.8725 100.648 20.1687C100.648 19.3287 101.355 18.8825 102.376 18.8825C103.371 18.8825 104.392 19.4862 104.549 20.615H107.717C107.586 18.0162 105.439 16.31 102.271 16.31C99.5746 16.31 97.5586 17.9637 97.5586 20.3C97.5586 25.865 104.654 23.2137 104.654 25.9175C104.654 26.6525 103.868 27.2037 102.743 27.2037C101.381 27.2037 100.465 26.4687 100.334 25.2875H97.1921C97.323 28.1487 99.5223 29.96 102.743 29.96Z" fill="black" fill-opacity="0.26"/>
<path d="M122.248 16.52H118.583V23.765C118.583 25.445 117.457 26.705 115.86 26.705C114.368 26.705 113.32 25.55 113.32 23.9487V16.52H109.681V24.7625C109.681 27.7812 111.618 29.96 114.577 29.96C116.384 29.96 117.85 29.1725 118.583 27.9125V29.75H122.248V16.52Z" fill="black" fill-opacity="0.26"/>
<path d="M124.867 29.75H128.506V10.7712H124.867V29.75Z" fill="black" fill-opacity="0.26"/>
<path d="M139.943 25.2612C139.655 26.39 138.686 26.9675 137.22 26.9675C135.387 26.9675 134.209 25.8125 133.947 23.9487H143.425C143.451 23.66 143.478 23.2662 143.478 22.7675C143.478 19.7487 141.619 16.31 136.958 16.31C132.481 16.31 130.439 19.7487 130.439 23.1087C130.439 26.4425 132.743 29.96 137.22 29.96C140.467 29.96 142.98 28.1225 143.504 25.2612H139.943ZM136.958 18.9875C138.713 18.9875 139.734 20.1687 139.838 21.6387H134C134.314 19.8012 135.309 18.9875 136.958 18.9875Z" fill="black" fill-opacity="0.26"/>
</svg>
