<svg width="140" height="42" viewBox="0 0 140 42" fill="none" xmlns="http://www.w3.org/2000/svg">
<path opacity="0.8" d="M19.25 1.75C8.61848 1.75 0 10.3685 0 21C0 31.6315 8.61848 40.25 19.25 40.25C28.7884 40.25 36.7064 33.3127 38.2338 24.2083H38.0957C36.671 29.7434 31.6465 33.8333 25.6667 33.8333C18.579 33.8333 12.8333 28.0877 12.8333 21C12.8333 13.9123 18.579 8.16667 25.6667 8.16667C31.6465 8.16667 36.671 12.2566 38.0957 17.7917H38.2338C36.7064 8.68734 28.7884 1.75 19.25 1.75Z" fill="black" fill-opacity="0.26"/>
<path d="M0 21C0 10.3685 8.61852 1.75 19.25 1.75C28.7884 1.75 36.7064 8.68734 38.2338 17.7917H25.2624C23.8377 12.2566 18.8132 8.16667 12.8333 8.16667C5.74568 8.16667 0 13.9123 0 21Z" fill="black" fill-opacity="0.26"/>
<path d="M0 21C0 31.6315 8.61852 40.25 19.25 40.25C28.7884 40.25 36.7064 33.3127 38.2338 24.2083H25.2624C23.8377 29.7434 18.8132 33.8333 12.8333 33.8333C5.74568 33.8333 0 28.0877 0 21Z" fill="black" fill-opacity="0.26"/>
<path d="M66.0089 17.9437C65.4608 13.9851 62.4157 11.6882 58.4658 11.6882C53.8111 11.6882 50.3049 15.0813 50.3049 20.8409C50.3049 26.5918 53.7676 29.9936 58.4658 29.9936C62.7028 29.9936 65.513 27.253 66.0089 23.8512L62.755 23.8338C62.3461 25.9219 60.6409 27.0964 58.5093 27.0964C55.6208 27.0964 53.5501 24.9301 53.5501 20.8409C53.5501 16.8214 55.6034 14.5854 58.518 14.5854C60.6844 14.5854 62.3809 15.8122 62.755 17.9437H66.0089Z" fill="black" fill-opacity="0.26"/>
<path d="M72.6712 30.0197C74.7679 30.0197 76.0208 29.0366 76.595 27.9143H76.6994V29.75H79.7271V20.8061C79.7271 17.2738 76.8473 16.2124 74.2981 16.2124C71.4879 16.2124 69.3303 17.4652 68.6342 19.9013L71.5749 20.3189C71.8882 19.4054 72.7756 18.6224 74.3155 18.6224C75.7772 18.6224 76.5776 19.3706 76.5776 20.6843V20.7365C76.5776 21.6414 75.6293 21.6849 73.2715 21.9372C70.6788 22.2156 68.1992 22.9899 68.1992 26.0002C68.1992 28.6277 70.122 30.0197 72.6712 30.0197ZM73.489 27.7055C72.1753 27.7055 71.2356 27.1051 71.2356 25.948C71.2356 24.7387 72.2884 24.234 73.6978 24.0339C74.5243 23.9208 76.1774 23.712 76.5863 23.3814V24.9562C76.5863 26.4439 75.3857 27.7055 73.489 27.7055Z" fill="black" fill-opacity="0.26"/>
<path d="M89.5671 16.3864H86.9309V13.1847H83.7814V16.3864H81.8848V18.8225H83.7814V26.2525C83.764 28.7669 85.5911 30.0023 87.9576 29.9327C88.8537 29.9066 89.4714 29.7326 89.8107 29.6195L89.28 27.1573C89.106 27.2008 88.7493 27.2791 88.3578 27.2791C87.5661 27.2791 86.9309 27.0007 86.9309 25.7305V18.8225H89.5671V16.3864Z" fill="black" fill-opacity="0.26"/>
<path d="M96.0467 30.0197C98.1434 30.0197 99.3963 29.0366 99.9705 27.9143H100.075V29.75H103.103V20.8061C103.103 17.2738 100.223 16.2124 97.6736 16.2124C94.8634 16.2124 92.7057 17.4652 92.0097 19.9013L94.9504 20.3189C95.2636 19.4054 96.1511 18.6224 97.691 18.6224C99.1527 18.6224 99.9531 19.3706 99.9531 20.6843V20.7365C99.9531 21.6414 99.0047 21.6849 96.647 21.9372C94.0543 22.2156 91.5747 22.9899 91.5747 26.0002C91.5747 28.6277 93.4975 30.0197 96.0467 30.0197ZM96.8645 27.7055C95.5507 27.7055 94.6111 27.1051 94.6111 25.948C94.6111 24.7387 95.6638 24.234 97.0733 24.0339C97.8998 23.9208 99.5529 23.712 99.9618 23.3814V24.9562C99.9618 26.4439 98.7611 27.7055 96.8645 27.7055Z" fill="black" fill-opacity="0.26"/>
<path d="M109.419 11.9318H106.269V29.75H109.419V11.9318Z" fill="black" fill-opacity="0.26"/>
<path d="M118.487 30.011C122.402 30.011 124.89 27.253 124.89 23.1204C124.89 18.9791 122.402 16.2124 118.487 16.2124C114.572 16.2124 112.083 18.9791 112.083 23.1204C112.083 27.253 114.572 30.011 118.487 30.011ZM118.504 27.4879C116.338 27.4879 115.276 25.5565 115.276 23.1117C115.276 20.6669 116.338 18.7094 118.504 18.7094C120.636 18.7094 121.697 20.6669 121.697 23.1117C121.697 25.5565 120.636 27.4879 118.504 27.4879Z" fill="black" fill-opacity="0.26"/>
<path d="M133.375 35.0398C136.986 35.0398 139.648 33.3867 139.648 29.9675V16.3864H136.542V18.5963H136.368C135.89 17.6305 134.889 16.2124 132.531 16.2124C129.443 16.2124 127.015 18.6311 127.015 23.0247C127.015 27.3835 129.443 29.5586 132.523 29.5586C134.811 29.5586 135.881 28.3319 136.368 27.3487H136.525V29.8805C136.525 31.8468 135.22 32.6559 133.427 32.6559C131.531 32.6559 130.696 31.7598 130.313 30.9768L127.476 31.6641C128.051 33.5346 129.973 35.0398 133.375 35.0398ZM133.401 27.0877C131.322 27.0877 130.226 25.4695 130.226 23.0073C130.226 20.5799 131.305 18.7964 133.401 18.7964C135.428 18.7964 136.542 20.4755 136.542 23.0073C136.542 25.5565 135.411 27.0877 133.401 27.0877Z" fill="black" fill-opacity="0.26"/>
</svg>
