<svg width="145" height="42" viewBox="0 0 145 42" fill="none" xmlns="http://www.w3.org/2000/svg">
<path d="M19.2168 3.46875C28.9991 3.46875 36.9336 11.4133 36.9336 21.2188C36.9336 31.0242 28.9991 38.9688 19.2168 38.9688C9.43451 38.9687 1.5 31.0242 1.5 21.2188C1.5 11.4133 9.43451 3.46879 19.2168 3.46875Z" stroke="black" stroke-width="3"/>
<path d="M31.7454 8.6684C33.4361 10.3621 33.9894 13.2533 33.0515 16.9073C32.1231 20.5236 29.7826 24.5981 26.1866 28.2004C22.5905 31.8026 18.523 34.1472 14.913 35.0771C11.2652 36.0167 8.37894 35.4624 6.6882 33.7688C4.99746 32.0752 4.44415 29.1839 5.38214 25.5299C6.31046 21.9136 8.65099 17.8391 12.247 14.2368C15.8431 10.6346 19.9106 8.29001 23.5206 7.3601C27.1684 6.42049 30.0547 6.97475 31.7454 8.6684Z" stroke="black" stroke-width="3"/>
<path d="M6.68813 8.66861C8.37887 6.97497 11.2652 6.4207 14.9129 7.3603C18.5229 8.29022 22.5904 10.6348 26.1865 14.237C29.7825 17.8393 32.1231 21.9138 33.0514 25.5301C33.9894 29.1841 33.4361 32.0754 31.7453 33.769C30.0546 35.4627 27.1683 36.0169 23.5206 35.0773C19.9106 34.1474 15.843 31.8028 12.247 28.2006C8.65092 24.5983 6.31039 20.5238 5.38208 16.9076C4.44409 13.2535 4.99739 10.3623 6.68813 8.66861Z" stroke="black" stroke-width="3"/>
<path d="M54.8991 29.9602C59.0133 29.9602 61.791 27.8077 61.791 24.369C61.791 17.0977 52.1476 20.1952 52.1476 16.3627C52.1476 15.2865 53.1172 14.5515 54.6633 14.5515C56.419 14.5515 57.5196 15.4965 57.6506 16.9402H61.3979C61.2931 13.449 58.6202 11.1652 54.6633 11.1652C50.9422 11.1652 48.3217 13.3177 48.3217 16.3627C48.3217 23.5815 57.8341 20.8252 57.8341 24.4215C57.8341 25.8127 56.6548 26.5477 54.8991 26.5477C52.96 26.5477 51.7283 25.3665 51.5711 23.5027H47.7976C47.9548 27.414 50.7325 29.9602 54.8991 29.9602Z" fill="black"/>
<path d="M62.6822 35.1052H66.3246V28.569C67.0322 29.4615 68.3162 29.9602 69.8099 29.9602C73.6096 29.9602 76.1776 27.2565 76.1776 23.1352C76.1776 19.014 73.8192 16.3102 70.1243 16.3102C68.421 16.3102 67.1108 16.9402 66.3246 17.964V16.5202H62.6822V35.1052ZM69.3644 26.8102C67.399 26.8102 66.115 25.3402 66.115 23.1352C66.115 20.904 67.399 19.434 69.3644 19.434C71.2773 19.434 72.5876 20.904 72.5876 23.1352C72.5876 25.3402 71.2773 26.8102 69.3644 26.8102Z" fill="black"/>
<path d="M77.059 29.7502H80.7014V22.5052C80.7014 20.799 81.8283 19.5652 83.4267 19.5652C84.9466 19.5652 85.9948 20.7202 85.9948 22.3215V29.7502H89.6373V21.5077C89.6373 18.4627 87.6981 16.3102 84.737 16.3102C82.9026 16.3102 81.4614 17.0715 80.7014 18.3577V10.7715H77.059V29.7502Z" fill="black"/>
<path d="M99.8269 25.2615C99.5386 26.3902 98.569 26.9677 97.1016 26.9677C95.2672 26.9677 94.088 25.8127 93.826 23.949H103.312C103.338 23.6602 103.365 23.2665 103.365 22.7677C103.365 19.749 101.504 16.3102 96.8395 16.3102C92.3585 16.3102 90.3145 19.749 90.3145 23.109C90.3145 26.4427 92.6205 29.9602 97.1016 29.9602C100.351 29.9602 102.867 28.1227 103.391 25.2615H99.8269ZM96.8395 18.9877C98.5952 18.9877 99.6172 20.169 99.722 21.639H93.8784C94.1928 19.8015 95.1886 18.9877 96.8395 18.9877Z" fill="black"/>
<path d="M112.917 19.5652V16.5202H111.038C109.44 16.5202 108.444 17.0715 107.736 18.7252V16.5202H104.068V29.7502H107.736V23.319C107.736 21.0615 108.549 19.5652 110.357 19.5652H112.917Z" fill="black"/>
<path d="M125.496 16.5202H121.827V23.7652C121.827 25.4452 120.7 26.7052 119.102 26.7052C117.608 26.7052 116.56 25.5502 116.56 23.949V16.5202H112.917V24.7627C112.917 27.7815 114.857 29.9602 117.818 29.9602C119.626 29.9602 121.093 29.1727 121.827 27.9127V29.7502H125.496V16.5202Z" fill="black"/>
<path d="M127.068 29.7502H130.711V10.7715H127.068V29.7502Z" fill="black"/>
<path d="M141.11 25.2615C140.821 26.3902 139.852 26.9677 138.384 26.9677C136.55 26.9677 135.371 25.8127 135.109 23.949H144.595C144.621 23.6602 144.647 23.2665 144.647 22.7677C144.647 19.749 142.787 16.3102 138.122 16.3102C133.641 16.3102 131.597 19.749 131.597 23.109C131.597 26.4427 133.903 29.9602 138.384 29.9602C141.634 29.9602 144.149 28.1227 144.674 25.2615H141.11ZM138.122 18.9877C139.878 18.9877 140.9 20.169 141.005 21.639H135.161C135.476 19.8015 136.471 18.9877 138.122 18.9877Z" fill="black"/>
</svg>
