<svg width="148" height="42" viewBox="0 0 148 42" fill="none" xmlns="http://www.w3.org/2000/svg">
<rect y="16.8" width="8.40709" height="8.39999" fill="black" fill-opacity="0.26"/>
<rect x="25.2212" y="25.2" width="8.4071" height="8.39999" transform="rotate(180 25.2212 25.2)" fill="black" fill-opacity="0.26"/>
<path opacity="0.4" d="M8.40723 16.7999L16.8143 8.3999V16.7999L8.40723 25.1999V16.7999Z" fill="black" fill-opacity="0.26"/>
<path opacity="0.6" d="M16.8142 25.1999L8.40712 33.5999L8.40712 25.1999L16.8142 16.7999L16.8142 25.1999Z" fill="black" fill-opacity="0.26"/>
<path opacity="0.8" d="M0 16.8L16.8142 0V8.39999L8.40709 16.8H0Z" fill="black" fill-opacity="0.26"/>
<path opacity="0.8" d="M25.2212 25.2L8.40701 42L8.40701 33.6L16.8141 25.2L25.2212 25.2Z" fill="black" fill-opacity="0.26"/>
<path d="M43.5314 29.9949C42.2073 29.9949 40.924 29.8071 39.6816 29.4314C38.4556 29.0558 37.4829 28.5576 36.7637 27.9369L37.8671 25.4624C38.57 26.0178 39.4283 26.4751 40.4418 26.8344C41.4716 27.1774 42.5015 27.3489 43.5314 27.3489C44.8065 27.3489 45.7546 27.1448 46.3758 26.7364C47.0133 26.3281 47.3321 25.7891 47.3321 25.1194C47.3321 24.6294 47.1523 24.2293 46.7926 23.9189C46.4494 23.5923 46.008 23.3391 45.4685 23.1594C44.9291 22.9798 44.1934 22.7756 43.2617 22.5469C41.9539 22.2366 40.8913 21.9263 40.074 21.6159C39.273 21.3056 38.5782 20.8238 37.9897 20.1704C37.4176 19.5008 37.1315 18.6024 37.1315 17.4754C37.1315 16.5281 37.3849 15.6706 37.8916 14.9029C38.4147 14.1189 39.1912 13.4983 40.2211 13.0409C41.2673 12.5836 42.5424 12.3549 44.0463 12.3549C45.0925 12.3549 46.1224 12.4856 47.1359 12.7469C48.1495 13.0083 49.024 13.3839 49.7596 13.8739L48.7543 16.3484C48.0023 15.9074 47.2177 15.5726 46.4003 15.3439C45.583 15.1153 44.7901 15.0009 44.0218 15.0009C42.7631 15.0009 41.8231 15.2133 41.2019 15.6379C40.5971 16.0626 40.2947 16.6261 40.2947 17.3284C40.2947 17.8184 40.4663 18.2186 40.8096 18.5289C41.1692 18.8393 41.6188 19.0843 42.1582 19.2639C42.6977 19.4436 43.4333 19.6478 44.3651 19.8764C45.6402 20.1704 46.6864 20.4808 47.5037 20.8074C48.3211 21.1178 49.0159 21.5996 49.588 22.2529C50.1765 22.9063 50.4707 23.7883 50.4707 24.8989C50.4707 25.8463 50.2092 26.7038 49.6861 27.4714C49.1793 28.2391 48.4028 28.8516 47.3566 29.3089C46.3104 29.7663 45.0353 29.9949 43.5314 29.9949Z" fill="black" fill-opacity="0.26"/>
<path d="M53.3374 16.6669H56.4025V29.7499H53.3374V16.6669ZM54.8822 14.5109C54.3264 14.5109 53.8605 14.3394 53.4845 13.9964C53.1085 13.6371 52.9205 13.1961 52.9205 12.6734C52.9205 12.1508 53.1085 11.7179 53.4845 11.3749C53.8605 11.0156 54.3264 10.8359 54.8822 10.8359C55.438 10.8359 55.9039 11.0074 56.2799 11.3504C56.6558 11.6771 56.8438 12.0936 56.8438 12.5999C56.8438 13.1389 56.6558 13.5963 56.2799 13.9719C55.9202 14.3313 55.4543 14.5109 54.8822 14.5109Z" fill="black" fill-opacity="0.26"/>
<path d="M64.4713 29.9214C63.4087 29.9214 62.3707 29.7826 61.3572 29.5049C60.3437 29.2273 59.5345 28.8761 58.9296 28.4514L60.1066 26.1239C60.6951 26.5159 61.398 26.8344 62.2154 27.0794C63.0491 27.3081 63.8665 27.4224 64.6675 27.4224C66.4984 27.4224 67.4138 26.9406 67.4138 25.9769C67.4138 25.5196 67.1768 25.2011 66.7027 25.0214C66.245 24.8418 65.5012 24.6703 64.4713 24.5069C63.3924 24.3436 62.5096 24.1558 61.8231 23.9434C61.1528 23.7311 60.5643 23.3636 60.0576 22.8409C59.5672 22.3019 59.322 21.5588 59.322 20.6114C59.322 19.3701 59.8369 18.3819 60.8668 17.6469C61.913 16.8956 63.3188 16.5199 65.0843 16.5199C65.9834 16.5199 66.8825 16.6261 67.7816 16.8384C68.6807 17.0344 69.4163 17.3039 69.9885 17.6469L68.8115 19.9744C67.6999 19.3211 66.4493 18.9944 65.0598 18.9944C64.1607 18.9944 63.4741 19.1333 63.0001 19.4109C62.5423 19.6723 62.3135 20.0234 62.3135 20.4644C62.3135 20.9544 62.5587 21.3056 63.0491 21.5179C63.5559 21.7139 64.3324 21.9018 65.3786 22.0814C66.4248 22.2448 67.283 22.4326 67.9532 22.6449C68.6235 22.8573 69.1956 23.2166 69.6697 23.7229C70.1601 24.2293 70.4053 24.9479 70.4053 25.8789C70.4053 27.1039 69.874 28.0839 68.8115 28.8189C67.7489 29.5539 66.3022 29.9214 64.4713 29.9214Z" fill="black" fill-opacity="0.26"/>
<path d="M85.0658 16.6669L78.9356 30.8034C78.3635 32.2244 77.6687 33.2208 76.8514 33.7924C76.034 34.3804 75.045 34.6744 73.8844 34.6744C73.2305 34.6744 72.5848 34.5683 71.9473 34.3559C71.3097 34.1436 70.7866 33.8496 70.3779 33.4739L71.604 31.2199C71.8982 31.4976 72.2415 31.7181 72.6338 31.8814C73.0425 32.0448 73.4512 32.1264 73.8599 32.1264C74.3993 32.1264 74.8407 31.9876 75.184 31.7099C75.5436 31.4323 75.8706 30.9668 76.1648 30.3134L76.3855 29.7989L70.6722 16.6669H73.8599L77.9793 26.3444L82.1233 16.6669H85.0658Z" fill="black" fill-opacity="0.26"/>
<path d="M94.2396 16.5199C95.5147 16.5199 96.6508 16.7976 97.648 17.3529C98.6615 17.9083 99.4544 18.6923 100.027 19.7049C100.599 20.7176 100.885 21.8854 100.885 23.2084C100.885 24.5314 100.599 25.7074 100.027 26.7364C99.4544 27.7491 98.6615 28.5331 97.648 29.0884C96.6508 29.6438 95.5147 29.9214 94.2396 29.9214C92.4741 29.9214 91.0765 29.3334 90.0466 28.1574V34.5029H86.9815V16.6669H89.8995V18.3819C90.4062 17.7613 91.0274 17.2958 91.763 16.9854C92.515 16.6751 93.3405 16.5199 94.2396 16.5199ZM93.8963 27.2999C95.0243 27.2999 95.9479 26.9243 96.6672 26.1729C97.4028 25.4216 97.7706 24.4334 97.7706 23.2084C97.7706 21.9834 97.4028 20.9953 96.6672 20.2439C95.9479 19.4926 95.0243 19.1169 93.8963 19.1169C93.1607 19.1169 92.4987 19.2884 91.9102 19.6314C91.3217 19.9581 90.8558 20.4318 90.5125 21.0524C90.1692 21.6731 89.9976 22.3918 89.9976 23.2084C89.9976 24.0251 90.1692 24.7438 90.5125 25.3644C90.8558 25.9851 91.3217 26.4669 91.9102 26.8099C92.4987 27.1366 93.1607 27.2999 93.8963 27.2999Z" fill="black" fill-opacity="0.26"/>
<path d="M111.221 16.5199C112.872 16.5199 114.197 17.0018 115.194 17.9654C116.191 18.9291 116.689 20.3583 116.689 22.2529V29.7499H113.624V22.6449C113.624 21.5016 113.355 20.6441 112.815 20.0724C112.276 19.4844 111.507 19.1904 110.51 19.1904C109.382 19.1904 108.491 19.5334 107.838 20.2194C107.184 20.8891 106.857 21.8609 106.857 23.1349V29.7499H103.792V11.5709H106.857V18.1859C107.363 17.6469 107.985 17.2386 108.72 16.9609C109.472 16.6669 110.306 16.5199 111.221 16.5199Z" fill="black" fill-opacity="0.26"/>
<path d="M133.255 16.6669V29.7499H130.337V28.0839C129.847 28.6719 129.234 29.1293 128.498 29.4559C127.762 29.7663 126.969 29.9214 126.119 29.9214C124.37 29.9214 122.989 29.4396 121.975 28.4759C120.978 27.4959 120.48 26.0504 120.48 24.1394V16.6669H123.545V23.7229C123.545 24.8989 123.806 25.7809 124.329 26.3689C124.869 26.9406 125.629 27.2264 126.61 27.2264C127.705 27.2264 128.572 26.8916 129.209 26.2219C129.863 25.5359 130.19 24.5559 130.19 23.2819V16.6669H133.255Z" fill="black" fill-opacity="0.26"/>
<path d="M141.314 29.9214C140.251 29.9214 139.213 29.7826 138.2 29.5049C137.186 29.2273 136.377 28.8761 135.772 28.4514L136.949 26.1239C137.538 26.5159 138.241 26.8344 139.058 27.0794C139.892 27.3081 140.709 27.4224 141.51 27.4224C143.341 27.4224 144.257 26.9406 144.257 25.9769C144.257 25.5196 144.019 25.2011 143.545 25.0214C143.088 24.8418 142.344 24.6703 141.314 24.5069C140.235 24.3436 139.352 24.1558 138.666 23.9434C137.996 23.7311 137.407 23.3636 136.9 22.8409C136.41 22.3019 136.165 21.5588 136.165 20.6114C136.165 19.3701 136.68 18.3819 137.709 17.6469C138.756 16.8956 140.162 16.5199 141.927 16.5199C142.826 16.5199 143.725 16.6261 144.624 16.8384C145.523 17.0344 146.259 17.3039 146.831 17.6469L145.654 19.9744C144.543 19.3211 143.292 18.9944 141.903 18.9944C141.003 18.9944 140.317 19.1333 139.843 19.4109C139.385 19.6723 139.156 20.0234 139.156 20.4644C139.156 20.9544 139.401 21.3056 139.892 21.5179C140.399 21.7139 141.175 21.9018 142.221 22.0814C143.268 22.2448 144.126 22.4326 144.796 22.6449C145.466 22.8573 146.038 23.2166 146.512 23.7229C147.003 24.2293 147.248 24.9479 147.248 25.8789C147.248 27.1039 146.717 28.0839 145.654 28.8189C144.592 29.5539 143.145 29.9214 141.314 29.9214Z" fill="black" fill-opacity="0.26"/>
</svg>
