<svg width="32" height="32" viewBox="0 0 32 32" fill="none" xmlns="http://www.w3.org/2000/svg">
<path d="M27.7913 15.4862C27.7838 15.47 27.7763 15.4538 27.7676 15.4388L24.0001 8.7375V4C24.0001 3.46957 23.7893 2.96086 23.4143 2.58579C23.0392 2.21071 22.5305 2 22.0001 2H10.0001C9.46962 2 8.96091 2.21071 8.58584 2.58579C8.21077 2.96086 8.00005 3.46957 8.00005 4V8.74L4.23256 15.4388C4.22381 15.4538 4.2163 15.47 4.20755 15.4862C4.04433 15.8148 3.975 16.1821 4.0072 16.5476C4.0394 16.913 4.17189 17.2625 4.39005 17.5575L4.4038 17.575L15.2088 31.61C15.3022 31.7311 15.4222 31.8292 15.5595 31.8967C15.6968 31.9642 15.8477 31.9993 16.0007 31.9993C16.1537 31.9993 16.3046 31.9642 16.4419 31.8967C16.5792 31.8292 16.6991 31.7311 16.7926 31.61L27.5963 17.575L27.6101 17.5575C27.8283 17.2625 27.9607 16.913 27.9927 16.5474C28.0247 16.1819 27.955 15.8146 27.7913 15.4862ZM22.0001 4V8H10.0001V4H22.0001ZM16.0001 18C15.7034 18 15.4134 17.912 15.1667 17.7472C14.92 17.5824 14.7278 17.3481 14.6142 17.074C14.5007 16.7999 14.471 16.4983 14.5289 16.2074C14.5868 15.9164 14.7296 15.6491 14.9394 15.4393C15.1492 15.2296 15.4164 15.0867 15.7074 15.0288C15.9984 14.9709 16.3 15.0006 16.5741 15.1142C16.8482 15.2277 17.0824 15.42 17.2473 15.6666C17.4121 15.9133 17.5001 16.2033 17.5001 16.5C17.5001 16.8978 17.342 17.2794 17.0607 17.5607C16.7794 17.842 16.3979 18 16.0001 18ZM17.0001 28.0625V19.8538C17.8057 19.6135 18.498 19.0914 18.9503 18.3827C19.4026 17.6741 19.5848 16.8263 19.4634 15.9944C19.342 15.1625 18.9253 14.402 18.2893 13.8521C17.6534 13.3023 16.8408 12.9996 16.0001 12.9996C15.1593 12.9996 14.3467 13.3023 13.7108 13.8521C13.0749 14.402 12.6581 15.1625 12.5367 15.9944C12.4153 16.8263 12.5975 17.6741 13.0498 18.3827C13.5021 19.0914 14.1944 19.6135 15.0001 19.8538V28.0613L6.00006 16.375L9.58631 10H22.4151L26.0001 16.375L17.0001 28.0625Z" fill="black"/>
</svg>
