<svg width="14" height="14" viewBox="0 0 14 14" fill="none" xmlns="http://www.w3.org/2000/svg">
<path d="M12.7143 4.4019L5.71427 11.4019C5.65331 11.4631 5.58086 11.5116 5.50109 11.5447C5.42132 11.5779 5.3358 11.5949 5.24943 11.5949C5.16306 11.5949 5.07754 11.5779 4.99777 11.5447C4.918 11.5116 4.84555 11.4631 4.78459 11.4019L1.72209 8.3394C1.66104 8.27836 1.61262 8.20589 1.57958 8.12613C1.54654 8.04637 1.52954 7.96089 1.52954 7.87456C1.52954 7.78823 1.54654 7.70274 1.57958 7.62298C1.61262 7.54323 1.66104 7.47076 1.72209 7.40971C1.78313 7.34867 1.8556 7.30025 1.93536 7.26721C2.01512 7.23417 2.1006 7.21717 2.18693 7.21717C2.27326 7.21717 2.35874 7.23417 2.4385 7.26721C2.51826 7.30025 2.59073 7.34867 2.65177 7.40971L5.24998 10.0079L11.7857 3.47331C11.909 3.35002 12.0762 3.28076 12.2505 3.28076C12.4249 3.28076 12.5921 3.35002 12.7154 3.47331C12.8387 3.59659 12.9079 3.7638 12.9079 3.93815C12.9079 4.1125 12.8387 4.27971 12.7154 4.40299L12.7143 4.4019Z" fill="white"/>
</svg>
