<svg width="189" height="42" viewBox="0 0 189 42" fill="none" xmlns="http://www.w3.org/2000/svg">
<path opacity="0.8" d="M17.9667 27.4167C25.0543 27.4167 30.8 21.671 30.8 14.5833C30.8 7.49568 25.0543 1.75 17.9667 1.75H0V27.4167H17.9667Z" fill="black" fill-opacity="0.26"/>
<path opacity="0.6" d="M0 1.75L30.8 40.25H10.2667L0 27.4167V1.75Z" fill="black" fill-opacity="0.26"/>
<path d="M20.3558 27.1947C19.5817 27.3404 18.7831 27.4167 17.9667 27.4167H0V1.75L20.3558 27.1947Z" fill="black" fill-opacity="0.26"/>
<path d="M51.9225 29.9949C50.1258 29.9949 48.5823 29.6356 47.292 28.9169C46.018 28.1819 45.038 27.1529 44.352 25.8299C43.666 24.4906 43.323 22.9144 43.323 21.1014C43.323 19.2884 43.666 17.7204 44.352 16.3974C45.038 15.0744 46.018 14.0536 47.292 13.3349C48.5823 12.5999 50.1258 12.2324 51.9225 12.2324C53.0822 12.2324 54.1765 12.4121 55.2055 12.7714C56.2508 13.1308 57.1083 13.6453 57.778 14.3149L56.749 16.8139C56.014 16.1933 55.2627 15.7441 54.495 15.4664C53.7273 15.1724 52.9025 15.0254 52.0205 15.0254C50.2728 15.0254 48.9417 15.5563 48.027 16.6179C47.1123 17.6633 46.655 19.1578 46.655 21.1014C46.655 23.0451 47.1123 24.5478 48.027 25.6094C48.9417 26.6711 50.2728 27.2019 52.0205 27.2019C52.9025 27.2019 53.7273 27.0631 54.495 26.7854C55.2627 26.4914 56.014 26.0341 56.749 25.4134L57.778 27.9124C57.1083 28.5658 56.2508 29.0803 55.2055 29.4559C54.1765 29.8153 53.0822 29.9949 51.9225 29.9949Z" fill="black" fill-opacity="0.26"/>
<path d="M64.8231 29.9949C63.5818 29.9949 62.5038 29.7418 61.5891 29.2354C60.6744 28.7291 59.9639 28.0104 59.4576 27.0794C58.9513 26.1321 58.6981 25.0214 58.6981 23.7474C58.6981 22.4734 58.9513 21.3709 59.4576 20.4399C59.9639 19.5089 60.6744 18.7903 61.5891 18.2839C62.5038 17.7776 63.5818 17.5244 64.8231 17.5244C66.0644 17.5244 67.1424 17.7776 68.0571 18.2839C68.9718 18.7903 69.6823 19.5089 70.1886 20.4399C70.6949 21.3709 70.9481 22.4734 70.9481 23.7474C70.9481 25.0214 70.6949 26.1321 70.1886 27.0794C69.6823 28.0104 68.9718 28.7291 68.0571 29.2354C67.1424 29.7418 66.0644 29.9949 64.8231 29.9949ZM64.8231 27.6674C65.7378 27.6674 66.4728 27.3408 67.0281 26.6874C67.5834 26.0178 67.8611 25.0378 67.8611 23.7474C67.8611 22.4408 67.5834 21.4689 67.0281 20.8319C66.4728 20.1786 65.7378 19.8519 64.8231 19.8519C63.9084 19.8519 63.1734 20.1786 62.6181 20.8319C62.0628 21.4689 61.7851 22.4408 61.7851 23.7474C61.7851 25.0378 62.0628 26.0178 62.6181 26.6874C63.1734 27.3408 63.9084 27.6674 64.8231 27.6674Z" fill="black" fill-opacity="0.26"/>
<path d="M73.5248 29.7499V17.7694H76.5138V19.6069C76.8731 18.9536 77.3713 18.4473 78.0083 18.0879C78.6453 17.7123 79.3803 17.5244 80.2133 17.5244C82.01 17.5244 83.186 18.3084 83.7413 19.8764C84.117 19.1414 84.656 18.5698 85.3583 18.1614C86.0606 17.7368 86.861 17.5244 87.7593 17.5244C90.4543 17.5244 91.8018 19.1659 91.8018 22.4489V29.7499H88.7393V22.5714C88.7393 21.6568 88.5841 20.9871 88.2738 20.5624C87.9798 20.1378 87.4735 19.9254 86.7548 19.9254C85.9545 19.9254 85.3256 20.2113 84.8683 20.7829C84.411 21.3383 84.1823 22.1141 84.1823 23.1104V29.7499H81.1198V22.5714C81.1198 21.6568 80.9646 20.9871 80.6543 20.5624C80.3603 20.1378 79.8621 19.9254 79.1598 19.9254C78.3595 19.9254 77.7306 20.2113 77.2733 20.7829C76.816 21.3383 76.5873 22.1141 76.5873 23.1104V29.7499H73.5248Z" fill="black" fill-opacity="0.26"/>
<path d="M95.0101 29.7499V17.7694H97.9991V19.6069C98.3585 18.9536 98.8567 18.4473 99.4936 18.0879C100.131 17.7123 100.866 17.5244 101.699 17.5244C103.495 17.5244 104.671 18.3084 105.227 19.8764C105.602 19.1414 106.141 18.5698 106.844 18.1614C107.546 17.7368 108.346 17.5244 109.245 17.5244C111.94 17.5244 113.287 19.1659 113.287 22.4489V29.7499H110.225V22.5714C110.225 21.6568 110.069 20.9871 109.759 20.5624C109.465 20.1378 108.959 19.9254 108.24 19.9254C107.44 19.9254 106.811 20.2113 106.354 20.7829C105.896 21.3383 105.668 22.1141 105.668 23.1104V29.7499H102.605V22.5714C102.605 21.6568 102.45 20.9871 102.14 20.5624C101.846 20.1378 101.347 19.9254 100.645 19.9254C99.8448 19.9254 99.216 20.2113 98.7587 20.7829C98.3013 21.3383 98.0726 22.1141 98.0726 23.1104V29.7499H95.0101Z" fill="black" fill-opacity="0.26"/>
<path d="M120.391 29.9949C119.525 29.9949 118.75 29.8316 118.063 29.5049C117.394 29.1619 116.863 28.7046 116.471 28.1329C116.095 27.5613 115.908 26.9161 115.908 26.1974C115.908 25.3154 116.136 24.6213 116.593 24.1149C117.051 23.5923 117.794 23.2166 118.823 22.9879C119.852 22.7593 121.232 22.6449 122.964 22.6449H123.821V22.1304C123.821 21.3138 123.641 20.7258 123.282 20.3664C122.923 20.0071 122.318 19.8274 121.469 19.8274C120.799 19.8274 120.113 19.9336 119.411 20.1459C118.709 20.3419 117.998 20.6523 117.28 21.0769L116.397 18.9944C116.822 18.7004 117.32 18.4473 117.892 18.2349C118.48 18.0063 119.092 17.8348 119.729 17.7204C120.383 17.5898 120.995 17.5244 121.567 17.5244C123.315 17.5244 124.613 17.9328 125.463 18.7494C126.312 19.5498 126.737 20.7993 126.737 22.4979V29.7499H123.87V27.8389C123.592 28.5086 123.151 29.0394 122.547 29.4314C121.943 29.8071 121.224 29.9949 120.391 29.9949ZM121.028 27.8879C121.828 27.8879 122.49 27.6103 123.012 27.0549C123.551 26.4996 123.821 25.7973 123.821 24.9479V24.4089H122.988C121.453 24.4089 120.383 24.5314 119.779 24.7764C119.19 25.0051 118.896 25.4298 118.896 26.0504C118.896 26.5894 119.084 27.0304 119.46 27.3734C119.836 27.7164 120.358 27.8879 121.028 27.8879Z" fill="black" fill-opacity="0.26"/>
<path d="M129.845 29.7499V17.7694H132.834V19.6314C133.242 18.9454 133.789 18.4228 134.475 18.0634C135.178 17.7041 135.962 17.5244 136.827 17.5244C139.653 17.5244 141.066 19.1659 141.066 22.4489V29.7499H138.003V22.5959C138.003 21.6649 137.824 20.9871 137.464 20.5624C137.121 20.1378 136.582 19.9254 135.847 19.9254C134.949 19.9254 134.23 20.2113 133.691 20.7829C133.169 21.3383 132.907 22.0814 132.907 23.0124V29.7499H129.845Z" fill="black" fill-opacity="0.26"/>
<path d="M148.782 29.9949C147.737 29.9949 146.814 29.7418 146.014 29.2354C145.23 28.7291 144.617 28.0104 144.176 27.0794C143.735 26.1321 143.515 25.0214 143.515 23.7474C143.515 22.4571 143.735 21.3546 144.176 20.4399C144.617 19.5089 145.23 18.7903 146.014 18.2839C146.814 17.7776 147.737 17.5244 148.782 17.5244C149.632 17.5244 150.399 17.7123 151.085 18.0879C151.771 18.4636 152.286 18.9618 152.629 19.5824V12.4774H155.691V29.7499H152.702V27.7654C152.376 28.4514 151.861 28.9986 151.159 29.4069C150.457 29.7989 149.664 29.9949 148.782 29.9949ZM149.64 27.6674C150.555 27.6674 151.29 27.3408 151.845 26.6874C152.4 26.0178 152.678 25.0378 152.678 23.7474C152.678 22.4408 152.4 21.4689 151.845 20.8319C151.29 20.1786 150.555 19.8519 149.64 19.8519C148.725 19.8519 147.99 20.1786 147.435 20.8319C146.88 21.4689 146.602 22.4408 146.602 23.7474C146.602 25.0378 146.88 26.0178 147.435 26.6874C147.99 27.3408 148.725 27.6674 149.64 27.6674Z" fill="black" fill-opacity="0.26"/>
<path d="M163.497 28.7699V23.7964H158.646V21.6404H163.497V16.8139H165.751V21.6404H170.602V23.7964H165.751V28.7699H163.497Z" fill="black" fill-opacity="0.26"/>
<path d="M173.851 29.7499V12.4774H181.348C183.243 12.4774 184.705 12.9348 185.734 13.8494C186.763 14.7478 187.277 16.0136 187.277 17.6469C187.277 18.9373 186.943 20.0071 186.273 20.8564C185.603 21.6894 184.64 22.2529 183.382 22.5469C184.215 22.8083 184.901 23.4371 185.44 24.4334L188.331 29.7499H184.876L181.887 24.2374C181.593 23.6984 181.242 23.3309 180.834 23.1349C180.442 22.9389 179.936 22.8409 179.315 22.8409H176.987V29.7499H173.851ZM176.987 20.5134H180.809C183.096 20.5134 184.239 19.5824 184.239 17.7204C184.239 15.8748 183.096 14.9519 180.809 14.9519H176.987V20.5134Z" fill="black" fill-opacity="0.26"/>
</svg>
