<svg width="172" height="42" viewBox="0 0 172 42" fill="none" xmlns="http://www.w3.org/2000/svg">
<path d="M26.5674 1.75H11.8489L0 13.6247V28.3753L11.8489 40.25H26.5674L38.4162 28.3753V13.6247L26.5674 1.75ZM13.8854 28.5608L6.29473 20.9536L13.8854 13.3464C16.755 10.4705 21.4761 10.4705 24.3457 13.3464L31.9364 20.9536L24.3457 28.5608C21.4761 31.4367 16.8476 31.4367 13.8854 28.5608Z" fill="black" fill-opacity="0.26"/>
<path d="M55.3019 29.96C57.6592 29.96 59.5975 28.7525 60.1999 26.9412V29.75H63.6836V22.6625C63.6836 21.0612 62.4263 19.6962 60.7238 19.6962H55.7471V22.6625H59.2832C59.7285 22.6625 60.0166 22.9512 60.0166 23.3975C60.0166 25.1037 57.764 26.7575 55.4852 26.7575C52.4468 26.7575 50.0371 24.3687 50.0371 20.5625C50.0371 16.7562 52.4468 14.5512 55.5638 14.5512C57.9211 14.5512 59.5451 15.8375 59.8332 17.8062H63.736C63.5002 13.8687 60.1999 11.165 55.59 11.165C50.7443 11.165 46.2915 14.2887 46.2915 20.5625C46.2915 26.8362 50.6133 29.96 55.3019 29.96Z" fill="black" fill-opacity="0.26"/>
<path d="M65.179 29.75H68.8198V10.7712H65.179V29.75Z" fill="black" fill-opacity="0.26"/>
<path d="M76.6734 29.96C80.7333 29.96 83.6407 27.0725 83.6407 23.135C83.6407 19.1975 80.7333 16.31 76.6734 16.31C72.6135 16.31 69.7061 19.1975 69.7061 23.135C69.7061 27.0725 72.6135 29.96 76.6734 29.96ZM76.6734 26.81C74.709 26.81 73.3731 25.3137 73.3731 23.135C73.3731 20.93 74.709 19.4337 76.6734 19.4337C78.6379 19.4337 79.9737 20.93 79.9737 23.135C79.9737 25.3137 78.6379 26.81 76.6734 26.81Z" fill="black" fill-opacity="0.26"/>
<path d="M91.7875 29.96C95.6903 29.96 98.0214 27.2562 98.0214 23.135C98.0214 19.0137 95.6903 16.31 91.8399 16.31C90.1898 16.31 88.9063 16.94 88.1729 17.9112V10.7712H84.5321V29.75H88.1729V28.3062C88.9063 29.33 90.2684 29.96 91.7875 29.96ZM91.2113 26.81C89.2468 26.81 87.9634 25.34 87.9634 23.135C87.9634 20.9037 89.2468 19.4337 91.2113 19.4337C93.1234 19.4337 94.433 20.9037 94.433 23.135C94.433 25.34 93.1234 26.81 91.2113 26.81Z" fill="black" fill-opacity="0.26"/>
<path d="M104.116 16.31C100.501 16.31 98.3536 18.4362 98.1964 21.0875H101.444C101.497 19.985 102.309 18.9875 103.906 18.9875C105.399 18.9875 106.264 19.7487 106.264 20.8512C106.264 21.4025 105.923 21.8225 105.268 21.8225H103.042C100.161 21.8225 98.2226 23.3975 98.2226 25.9962C98.2226 28.2537 99.9775 29.96 102.544 29.96C104.352 29.96 105.819 29.1462 106.264 27.9125V29.75H109.878V21.245C109.878 18.2525 107.443 16.31 104.116 16.31ZM103.461 27.3087C102.44 27.3087 101.706 26.705 101.706 25.8387C101.706 24.815 102.492 24.1325 103.592 24.1325H106.264V24.3162C106.264 25.9962 105.242 27.3087 103.461 27.3087Z" fill="black" fill-opacity="0.26"/>
<path d="M111.278 29.75H114.918V10.7712H111.278V29.75Z" fill="black" fill-opacity="0.26"/>
<path d="M116.852 29.75H124.343C128.22 29.75 130.892 27.755 130.892 24.2637C130.892 21.8487 129.477 20.3787 127.801 19.7225C128.875 19.145 129.949 17.8325 129.949 16.1C129.949 13.0287 127.46 11.375 124.134 11.375H116.852V29.75ZM120.729 18.3837V14.4987H123.767C125.522 14.4987 126.308 15.2075 126.308 16.4412C126.308 17.675 125.522 18.3837 123.846 18.3837H120.729ZM120.729 26.3375V21.7175H124.003C126.177 21.7175 127.146 22.5575 127.146 24.0537C127.146 25.55 126.177 26.3375 124.003 26.3375H120.729Z" fill="black" fill-opacity="0.26"/>
<path d="M137.225 16.31C133.611 16.31 131.463 18.4362 131.306 21.0875H134.554C134.606 19.985 135.418 18.9875 137.016 18.9875C138.509 18.9875 139.373 19.7487 139.373 20.8512C139.373 21.4025 139.033 21.8225 138.378 21.8225H136.152C133.27 21.8225 131.332 23.3975 131.332 25.9962C131.332 28.2537 133.087 29.96 135.654 29.96C137.461 29.96 138.928 29.1462 139.373 27.9125V29.75H142.988V21.245C142.988 18.2525 140.552 16.31 137.225 16.31ZM136.571 27.3087C135.549 27.3087 134.816 26.705 134.816 25.8387C134.816 24.815 135.601 24.1325 136.702 24.1325H139.373V24.3162C139.373 25.9962 138.352 27.3087 136.571 27.3087Z" fill="black" fill-opacity="0.26"/>
<path d="M144.177 29.75H147.844V22.505C147.844 20.7987 148.971 19.565 150.568 19.565C152.088 19.565 153.109 20.72 153.109 22.3212V29.75H156.776V21.5075C156.776 18.4625 154.838 16.31 151.852 16.31C150.045 16.31 148.578 17.0712 147.844 18.3575V16.52H144.177V29.75Z" fill="black" fill-opacity="0.26"/>
<path d="M167.227 29.75H171.628L165.944 21.7175L171.209 16.52H166.599L162.015 21.035V10.7712H158.348V29.75H162.015V25.6025L163.482 24.1587L167.227 29.75Z" fill="black" fill-opacity="0.26"/>
</svg>
