<svg width="146" height="42" viewBox="0 0 146 42" fill="none" xmlns="http://www.w3.org/2000/svg">
<path fill-rule="evenodd" clip-rule="evenodd" d="M17.28 3.0169C16.8385 2.92601 16.3831 2.92601 15.9416 3.0169C15.4312 3.12196 14.975 3.37768 14.6123 3.58099L14.5135 3.63626L2.22194 10.4707C2.18795 10.4896 2.15294 10.5089 2.11706 10.5287C1.73315 10.7404 1.25043 11.0065 0.879732 11.4091C0.559236 11.7571 0.316694 12.1697 0.168324 12.6191C-0.00328706 13.139 -0.00127925 13.6906 0.000317491 14.1292C0.000466754 14.1702 0.000612344 14.2102 0.000612344 14.2491V27.7433C0.000612344 27.7822 0.000466754 27.8222 0.000317491 27.8632C-0.00127925 28.3019 -0.00328706 28.8535 0.168325 29.3733C0.316695 29.8228 0.559239 30.2353 0.879732 30.5834C1.25043 30.986 1.73315 31.2521 2.11706 31.4638C2.15294 31.4835 2.18796 31.5028 2.22194 31.5217L14.5135 38.3562L14.6123 38.4115C14.975 38.6148 15.4312 38.8705 15.9416 38.9756C16.3831 39.0665 16.8385 39.0665 17.28 38.9756C17.7904 38.8705 18.2466 38.6148 18.6092 38.4115L18.7081 38.3562L30.9996 31.5217C31.0146 31.5134 31.0299 31.5049 31.0453 31.4964C31.0647 31.4857 31.0845 31.4748 31.1045 31.4638C31.4884 31.2521 31.9711 30.986 32.3418 30.5834C32.6623 30.2353 32.9049 29.8228 33.0532 29.3733C33.2248 28.8535 33.2228 28.3019 33.2212 27.8632C33.2211 27.8222 33.2209 27.7822 33.2209 27.7433V14.2491C33.2209 14.2102 33.2211 14.1702 33.2212 14.1292C33.2228 13.6906 33.2248 13.139 33.0532 12.6191C32.9049 12.1697 32.6623 11.7571 32.3418 11.4091C31.9711 11.0064 31.4884 10.7403 31.1045 10.5287L31.1031 10.528C31.0677 10.5084 31.0332 10.4894 30.9996 10.4707L18.7081 3.63626L18.6092 3.58098C18.2466 3.37768 17.7904 3.12195 17.28 3.0169ZM16.1268 6.54273C16.3785 6.40277 16.507 6.33205 16.6028 6.28578L16.6108 6.28197L16.6187 6.28578C16.7146 6.33205 16.8431 6.40276 17.0948 6.54272L28.1396 12.684L16.6107 19.0944L5.08189 12.684L16.1268 6.54273ZM3.32265 15.5094L14.9497 21.9744L14.9498 34.7953L3.83526 28.6153C3.56958 28.4675 3.43393 28.3913 3.33876 28.3306L3.33072 28.3255L3.33012 28.316C3.32334 28.2032 3.32265 28.0475 3.32265 27.7433V15.5094Z" fill="black" fill-opacity="0.26"/>
<path d="M48.3384 26.5522H53.6259V29.6707H44.302V13.0859H48.3384V26.5522Z" fill="black" fill-opacity="0.26"/>
<path d="M57.3451 15.1177C56.637 15.1177 56.0547 14.9129 55.5984 14.5034C55.1577 14.0782 54.9374 13.5584 54.9374 12.9442C54.9374 12.3142 55.1577 11.7944 55.5984 11.3849C56.0547 10.9597 56.637 10.7471 57.3451 10.7471C58.0375 10.7471 58.604 10.9597 59.0447 11.3849C59.501 11.7944 59.7292 12.3142 59.7292 12.9442C59.7292 13.5584 59.501 14.0782 59.0447 14.5034C58.604 14.9129 58.0375 15.1177 57.3451 15.1177ZM59.3515 16.4879V29.6707H55.3151V16.4879H59.3515Z" fill="black" fill-opacity="0.26"/>
<path d="M67.0448 16.2989C67.9733 16.2989 68.7837 16.4879 69.4761 16.8659C70.1843 17.2439 70.7272 17.7401 71.1049 18.3543V16.4879H75.1413V29.6471C75.1413 30.8598 74.8974 31.9544 74.4095 32.9309C73.9375 33.9232 73.2057 34.7107 72.2143 35.2934C71.2386 35.8762 70.0191 36.1676 68.5556 36.1676C66.6042 36.1676 65.0227 35.7029 63.811 34.7737C62.5993 33.8602 61.9069 32.6159 61.7338 31.0409H65.723C65.8489 31.5449 66.1479 31.9387 66.62 32.2222C67.0921 32.5214 67.6743 32.6711 68.3667 32.6711C69.2008 32.6711 69.8617 32.4269 70.3495 31.9387C70.8531 31.4662 71.1049 30.7023 71.1049 29.6471V27.7807C70.7115 28.3949 70.1686 28.8989 69.4761 29.2927C68.7837 29.6707 67.9733 29.8597 67.0448 29.8597C65.959 29.8597 64.9755 29.5841 64.0943 29.0328C63.213 28.4658 62.5127 27.6704 61.9934 26.6467C61.4899 25.6072 61.2381 24.4102 61.2381 23.0557C61.2381 21.7012 61.4899 20.5121 61.9934 19.4883C62.5127 18.4646 63.213 17.6771 64.0943 17.1258C64.9755 16.5746 65.959 16.2989 67.0448 16.2989ZM71.1049 23.0793C71.1049 22.0713 70.8216 21.2759 70.2551 20.6932C69.7043 20.1104 69.0277 19.8191 68.2251 19.8191C67.4225 19.8191 66.738 20.1104 66.1715 20.6932C65.6207 21.2602 65.3453 22.0477 65.3453 23.0557C65.3453 24.0637 65.6207 24.8669 66.1715 25.4654C66.738 26.0482 67.4225 26.3396 68.2251 26.3396C69.0277 26.3396 69.7043 26.0482 70.2551 25.4654C70.8216 24.8827 71.1049 24.0873 71.1049 23.0793Z" fill="black" fill-opacity="0.26"/>
<path d="M85.9219 16.3462C87.4326 16.3462 88.6443 16.8502 89.557 17.8582C90.4697 18.8504 90.9261 20.2207 90.9261 21.9689V29.6707H86.9133V22.5123C86.9133 21.6303 86.6851 20.9452 86.2287 20.4569C85.7724 19.9687 85.1586 19.7246 84.3875 19.7246C83.6165 19.7246 83.0027 19.9687 82.5464 20.4569C82.09 20.9452 81.8618 21.6303 81.8618 22.5123V29.6707H77.8254V12.1882H81.8618V18.2598C82.271 17.6771 82.8296 17.2124 83.5378 16.8659C84.2459 16.5194 85.0406 16.3462 85.9219 16.3462Z" fill="black" fill-opacity="0.26"/>
<path d="M100.836 26.2451V29.6707H98.7824C97.3189 29.6707 96.178 29.3163 95.3597 28.6076C94.5414 27.8831 94.1323 26.7097 94.1323 25.0874V19.8427H92.5271V16.4879H94.1323V13.2749H98.1687V16.4879H100.812V19.8427H98.1687V25.1347C98.1687 25.5284 98.2631 25.8119 98.4519 25.9852C98.6408 26.1584 98.9555 26.2451 99.3961 26.2451H100.836Z" fill="black" fill-opacity="0.26"/>
<path d="M106.885 18.3543C107.262 17.7401 107.805 17.2439 108.513 16.8659C109.222 16.4879 110.032 16.2989 110.945 16.2989C112.031 16.2989 113.014 16.5746 113.895 17.1258C114.777 17.6771 115.469 18.4646 115.973 19.4883C116.492 20.5121 116.752 21.7012 116.752 23.0557C116.752 24.4102 116.492 25.6072 115.973 26.6467C115.469 27.6704 114.777 28.4658 113.895 29.0328C113.014 29.5841 112.031 29.8597 110.945 29.8597C110.016 29.8597 109.206 29.6786 108.513 29.3163C107.821 28.9383 107.278 28.4422 106.885 27.8279V29.6707H102.848V12.1882H106.885V18.3543ZM112.644 23.0557C112.644 22.0477 112.361 21.2602 111.795 20.6932C111.244 20.1104 110.559 19.8191 109.741 19.8191C108.938 19.8191 108.254 20.1104 107.687 20.6932C107.137 21.2759 106.861 22.0713 106.861 23.0793C106.861 24.0873 107.137 24.8827 107.687 25.4654C108.254 26.0482 108.938 26.3396 109.741 26.3396C110.544 26.3396 111.228 26.0482 111.795 25.4654C112.361 24.8669 112.644 24.0637 112.644 23.0557Z" fill="black" fill-opacity="0.26"/>
<path d="M124.629 29.8597C123.338 29.8597 122.174 29.5841 121.135 29.0328C120.112 28.4816 119.302 27.6941 118.704 26.6703C118.122 25.6466 117.831 24.4496 117.831 23.0793C117.831 21.7248 118.13 20.5357 118.728 19.5119C119.326 18.4724 120.144 17.6771 121.182 17.1258C122.221 16.5746 123.386 16.2989 124.676 16.2989C125.966 16.2989 127.131 16.5746 128.169 17.1258C129.208 17.6771 130.026 18.4724 130.624 19.5119C131.222 20.5357 131.521 21.7248 131.521 23.0793C131.521 24.4338 131.214 25.6308 130.601 26.6703C130.003 27.6941 129.177 28.4816 128.122 29.0328C127.084 29.5841 125.919 29.8597 124.629 29.8597ZM124.629 26.3632C125.4 26.3632 126.053 26.0797 126.588 25.5127C127.139 24.9457 127.414 24.1346 127.414 23.0793C127.414 22.0241 127.147 21.2129 126.612 20.6459C126.092 20.0789 125.447 19.7954 124.676 19.7954C123.889 19.7954 123.236 20.0789 122.717 20.6459C122.197 21.1972 121.938 22.0083 121.938 23.0793C121.938 24.1346 122.19 24.9457 122.693 25.5127C123.212 26.0797 123.858 26.3632 124.629 26.3632Z" fill="black" fill-opacity="0.26"/>
<path d="M141.216 29.6707L138.691 26.0088L136.566 29.6707H132.199L136.543 22.9376L132.081 16.4879H136.613L139.139 20.1262L141.263 16.4879H145.63L141.216 23.1266L145.748 29.6707H141.216Z" fill="black" fill-opacity="0.26"/>
</svg>
