<svg width="170" height="42" viewBox="0 0 170 42" fill="none" xmlns="http://www.w3.org/2000/svg">
<path d="M29.6894 20.9999C26.5747 24.4748 22.0484 26.6617 17.0105 26.6617C11.9726 26.6617 7.44625 24.4748 4.33154 20.9999C7.44625 17.525 11.9726 15.3381 17.0105 15.3381C22.0484 15.3381 26.5747 17.525 29.6894 20.9999Z" fill="black" fill-opacity="0.26"/>
<path opacity="0.6" fill-rule="evenodd" clip-rule="evenodd" d="M0 32.3234C0 22.9427 7.61577 15.3381 17.0103 15.3381C11.9724 15.3381 7.44609 17.525 4.33139 20.9999C7.44609 24.4748 11.9725 26.6617 17.0103 26.6617C22.0482 26.6617 26.5746 24.4748 29.6893 20.9999C32.3828 24.0049 34.0206 27.9732 34.0206 32.3234V38.7401C34.0206 39.5739 33.3436 40.2499 32.5086 40.2499H1.51203C0.676957 40.2499 0 39.5739 0 38.7401V32.3234ZM29.6893 20.9999C29.6893 20.9999 29.6893 20.9999 29.6893 20.9999V20.9999Z" fill="black" fill-opacity="0.26"/>
<path opacity="0.8" fill-rule="evenodd" clip-rule="evenodd" d="M10.6299 25.4265C8.2011 24.4445 6.05108 22.9186 4.33139 21C7.44609 17.5251 11.9725 15.3382 17.0103 15.3382C22.0482 15.3382 26.5746 17.5251 29.6893 21C29.6893 21 29.6893 21 29.6893 21C32.3828 17.995 34.0206 14.0267 34.0206 9.67647V3.25981C34.0206 2.42597 33.3436 1.75 32.5086 1.75L1.51203 1.75C0.676959 1.75 6.34793e-07 2.42596 5.61789e-07 3.2598L0 9.67647C-1.12992e-06 16.8042 4.39682 22.9064 10.6299 25.4265Z" fill="black" fill-opacity="0.26"/>
<path d="M60.5902 12.6491V29.7501H57.1551V22.4736H49.8188V29.7501H46.3838V12.6491H49.8188V19.6806H57.1551V12.6491H60.5902Z" fill="black" fill-opacity="0.26"/>
<path d="M70.007 29.9706C68.6985 29.9706 67.5207 29.6848 66.4738 29.1131C65.427 28.5251 64.6009 27.7003 63.9957 26.6386C63.4068 25.577 63.1124 24.3519 63.1124 22.9636C63.1124 21.5753 63.415 20.3503 64.0202 19.2886C64.6418 18.227 65.4842 17.4103 66.5475 16.8386C67.6107 16.2506 68.7966 15.9566 70.1052 15.9566C71.4138 15.9566 72.5997 16.2506 73.6629 16.8386C74.7261 17.4103 75.5604 18.227 76.1656 19.2886C76.7872 20.3503 77.098 21.5753 77.098 22.9636C77.098 24.3519 76.779 25.577 76.1411 26.6386C75.5195 27.7003 74.6689 28.5251 73.5893 29.1131C72.5261 29.6848 71.332 29.9706 70.007 29.9706ZM70.007 26.9816C70.6286 26.9816 71.2093 26.8346 71.7491 26.5406C72.3053 26.2303 72.7469 25.773 73.0741 25.1686C73.4012 24.5643 73.5648 23.8293 73.5648 22.9636C73.5648 21.6733 73.2213 20.6851 72.5343 19.9991C71.8636 19.2968 71.0376 18.9456 70.0561 18.9456C69.0747 18.9456 68.2486 19.2968 67.578 19.9991C66.9237 20.6851 66.5965 21.6733 66.5965 22.9636C66.5965 24.2539 66.9155 25.2503 67.5534 25.9526C68.2077 26.6386 69.0256 26.9816 70.007 26.9816Z" fill="black" fill-opacity="0.26"/>
<path d="M92.4501 16.1771V29.7501H88.9905V28.0351C88.5488 28.6231 87.9681 29.0886 87.2484 29.4316C86.5451 29.7583 85.7763 29.9216 84.942 29.9216C83.8788 29.9216 82.9383 29.7011 82.1204 29.2601C81.3025 28.8028 80.6564 28.1413 80.182 27.2756C79.724 26.3936 79.495 25.3483 79.495 24.1396V16.1771H82.9301V23.6496C82.9301 24.7276 83.2 25.5606 83.7398 26.1486C84.2796 26.7203 85.0156 27.0061 85.948 27.0061C86.8967 27.0061 87.641 26.7203 88.1808 26.1486C88.7206 25.5606 88.9905 24.7276 88.9905 23.6496V16.1771H92.4501Z" fill="black" fill-opacity="0.26"/>
<path d="M99.2744 18.2841C99.716 17.5654 100.289 17.0019 100.992 16.5936C101.712 16.1853 102.529 15.9811 103.445 15.9811V19.5826H102.538C101.458 19.5826 100.64 19.8358 100.084 20.3421C99.5443 20.8484 99.2744 21.7304 99.2744 22.9881V29.7501H95.8393V16.1771H99.2744V18.2841Z" fill="black" fill-opacity="0.26"/>
<path d="M111.083 15.9566C112.098 15.9566 112.989 16.1608 113.758 16.5691C114.527 16.9611 115.132 17.4756 115.574 18.1126V16.1771H119.033V29.8481C119.033 31.1058 118.78 32.2246 118.273 33.2046C117.765 34.2009 117.005 34.9849 115.991 35.5566C114.977 36.1446 113.75 36.4386 112.31 36.4386C110.38 36.4386 108.793 35.9895 107.55 35.0911C106.323 34.1928 105.628 32.9678 105.465 31.4161H108.875C109.055 32.0368 109.44 32.5268 110.028 32.8861C110.634 33.2618 111.362 33.4496 112.212 33.4496C113.21 33.4496 114.02 33.1474 114.641 32.5431C115.263 31.9551 115.574 31.0568 115.574 29.8481V27.7411C115.132 28.3781 114.519 28.9089 113.733 29.3336C112.965 29.7583 112.081 29.9706 111.083 29.9706C109.938 29.9706 108.892 29.6766 107.943 29.0886C106.994 28.5006 106.242 27.6758 105.686 26.6141C105.146 25.5361 104.876 24.3029 104.876 22.9146C104.876 21.5426 105.146 20.3258 105.686 19.2641C106.242 18.2024 106.986 17.3858 107.918 16.8141C108.867 16.2424 109.922 15.9566 111.083 15.9566ZM115.574 22.9636C115.574 22.1306 115.41 21.4201 115.083 20.8321C114.756 20.2278 114.314 19.7704 113.758 19.4601C113.202 19.1335 112.605 18.9701 111.967 18.9701C111.329 18.9701 110.74 19.1253 110.2 19.4356C109.66 19.7459 109.219 20.2033 108.875 20.8076C108.548 21.3956 108.385 22.0979 108.385 22.9146C108.385 23.7313 108.548 24.45 108.875 25.0706C109.219 25.675 109.66 26.1404 110.2 26.4671C110.756 26.7938 111.345 26.9571 111.967 26.9571C112.605 26.9571 113.202 26.8019 113.758 26.4916C114.314 26.1649 114.756 25.7076 115.083 25.1196C115.41 24.5153 115.574 23.7966 115.574 22.9636Z" fill="black" fill-opacity="0.26"/>
<path d="M125.823 11.6201V29.7501H122.388V11.6201H125.823Z" fill="black" fill-opacity="0.26"/>
<path d="M128.334 22.9146C128.334 21.5426 128.604 20.3258 129.143 19.2641C129.7 18.2024 130.444 17.3858 131.376 16.8141C132.325 16.2424 133.38 15.9566 134.541 15.9566C135.555 15.9566 136.439 16.1608 137.191 16.5691C137.96 16.9774 138.573 17.4919 139.031 18.1126V16.1771H142.491V29.7501H139.031V27.7656C138.59 28.4026 137.976 28.9334 137.191 29.3581C136.422 29.7664 135.531 29.9706 134.517 29.9706C133.372 29.9706 132.325 29.6766 131.376 29.0886C130.444 28.5006 129.7 27.6758 129.143 26.6141C128.604 25.5361 128.334 24.3029 128.334 22.9146ZM139.031 22.9636C139.031 22.1306 138.868 21.4201 138.541 20.8321C138.214 20.2278 137.772 19.7704 137.216 19.4601C136.66 19.1335 136.063 18.9701 135.425 18.9701C134.787 18.9701 134.198 19.1253 133.658 19.4356C133.118 19.7459 132.677 20.2033 132.333 20.8076C132.006 21.3956 131.842 22.0979 131.842 22.9146C131.842 23.7313 132.006 24.45 132.333 25.0706C132.677 25.675 133.118 26.1404 133.658 26.4671C134.214 26.7938 134.803 26.9571 135.425 26.9571C136.063 26.9571 136.66 26.8019 137.216 26.4916C137.772 26.1649 138.214 25.7076 138.541 25.1196C138.868 24.5153 139.031 23.7966 139.031 22.9636Z" fill="black" fill-opacity="0.26"/>
<path d="M151.048 29.9706C149.935 29.9706 148.937 29.7746 148.054 29.3826C147.171 28.9743 146.468 28.4271 145.944 27.7411C145.437 27.0551 145.159 26.2956 145.11 25.4626H148.569C148.635 25.9853 148.888 26.4181 149.33 26.7611C149.788 27.1041 150.352 27.2756 151.023 27.2756C151.677 27.2756 152.184 27.1449 152.544 26.8836C152.921 26.6223 153.109 26.2875 153.109 25.8791C153.109 25.4381 152.88 25.1114 152.422 24.8991C151.98 24.6704 151.268 24.4254 150.287 24.1641C149.273 23.9191 148.439 23.6659 147.784 23.4046C147.146 23.1433 146.59 22.7431 146.116 22.2041C145.658 21.6651 145.429 20.9383 145.429 20.0236C145.429 19.2723 145.641 18.5863 146.067 17.9656C146.508 17.3449 147.13 16.8549 147.931 16.4956C148.749 16.1363 149.706 15.9566 150.802 15.9566C152.422 15.9566 153.714 16.3649 154.679 17.1816C155.644 17.9819 156.176 19.0681 156.274 20.4401H152.986C152.937 19.9011 152.708 19.4764 152.299 19.1661C151.906 18.8394 151.375 18.6761 150.704 18.6761C150.082 18.6761 149.6 18.7904 149.256 19.0191C148.929 19.2478 148.766 19.5663 148.766 19.9746C148.766 20.4319 148.995 20.7831 149.453 21.0281C149.911 21.2568 150.622 21.4936 151.587 21.7386C152.569 21.9836 153.379 22.2368 154.016 22.4981C154.654 22.7594 155.202 23.1678 155.66 23.7231C156.135 24.2621 156.38 24.9808 156.396 25.8791C156.396 26.6631 156.176 27.3654 155.734 27.9861C155.309 28.6068 154.687 29.0968 153.869 29.4561C153.068 29.7991 152.127 29.9706 151.048 29.9706Z" fill="black" fill-opacity="0.26"/>
<path d="M164.418 29.9706C163.306 29.9706 162.308 29.7746 161.424 29.3826C160.541 28.9743 159.838 28.4271 159.314 27.7411C158.807 27.0551 158.529 26.2956 158.48 25.4626H161.94C162.005 25.9853 162.259 26.4181 162.7 26.7611C163.158 27.1041 163.723 27.2756 164.393 27.2756C165.048 27.2756 165.555 27.1449 165.915 26.8836C166.291 26.6223 166.479 26.2875 166.479 25.8791C166.479 25.4381 166.25 25.1114 165.792 24.8991C165.35 24.6704 164.639 24.4254 163.657 24.1641C162.643 23.9191 161.809 23.6659 161.155 23.4046C160.517 23.1433 159.96 22.7431 159.486 22.2041C159.028 21.6651 158.799 20.9383 158.799 20.0236C158.799 19.2723 159.012 18.5863 159.437 17.9656C159.879 17.3449 160.5 16.8549 161.302 16.4956C162.12 16.1363 163.076 15.9566 164.172 15.9566C165.792 15.9566 167.084 16.3649 168.049 17.1816C169.014 17.9819 169.546 19.0681 169.644 20.4401H166.356C166.307 19.9011 166.078 19.4764 165.669 19.1661C165.277 18.8394 164.745 18.6761 164.074 18.6761C163.453 18.6761 162.97 18.7904 162.627 19.0191C162.3 19.2478 162.136 19.5663 162.136 19.9746C162.136 20.4319 162.365 20.7831 162.823 21.0281C163.281 21.2568 163.993 21.4936 164.958 21.7386C165.939 21.9836 166.749 22.2368 167.387 22.4981C168.025 22.7594 168.573 23.1678 169.031 23.7231C169.505 24.2621 169.75 24.9808 169.767 25.8791C169.767 26.6631 169.546 27.3654 169.104 27.9861C168.679 28.6068 168.057 29.0968 167.239 29.4561C166.438 29.7991 165.497 29.9706 164.418 29.9706Z" fill="black" fill-opacity="0.26"/>
</svg>
