<svg width="32" height="32" viewBox="0 0 32 32" fill="none" xmlns="http://www.w3.org/2000/svg">
<path d="M9.50007 19C8.61005 19 7.74002 19.2639 7 19.7584C6.25998 20.2529 5.6832 20.9557 5.34261 21.7779C5.00202 22.6002 4.9129 23.505 5.08653 24.3779C5.26017 25.2508 5.68875 26.0526 6.31809 26.682C6.94742 27.3113 7.74925 27.7399 8.62216 27.9135C9.49508 28.0872 10.3999 27.9981 11.2221 27.6575C12.0444 27.3169 12.7472 26.7401 13.2417 26.0001C13.7361 25.26 14.0001 24.39 14.0001 23.5C14.0001 22.3065 13.526 21.1619 12.682 20.318C11.8381 19.4741 10.6935 19 9.50007 19ZM9.50007 26C9.00561 26 8.52226 25.8534 8.11114 25.5787C7.70002 25.304 7.37959 24.9135 7.19037 24.4567C7.00115 23.9999 6.95164 23.4972 7.0481 23.0123C7.14457 22.5273 7.38267 22.0819 7.7323 21.7322C8.08193 21.3826 8.52739 21.1445 9.01234 21.048C9.49729 20.9516 9.99996 21.0011 10.4568 21.1903C10.9136 21.3795 11.304 21.7 11.5787 22.1111C11.8534 22.5222 12.0001 23.0055 12.0001 23.5C12.0001 23.8283 11.9354 24.1534 11.8098 24.4567C11.6841 24.76 11.5 25.0356 11.2678 25.2678C11.0357 25.4999 10.7601 25.6841 10.4568 25.8097C10.1535 25.9353 9.82837 26 9.50007 26ZM5.29257 13.2925L7.08632 11.5L5.29257 9.7075C5.10493 9.51986 4.99951 9.26536 4.99951 9C4.99951 8.73464 5.10493 8.48014 5.29257 8.2925C5.48021 8.10486 5.7347 7.99944 6.00007 7.99944C6.26543 7.99944 6.51993 8.10486 6.70757 8.2925L8.50007 10.0863L10.2926 8.2925C10.4802 8.10486 10.7347 7.99944 11.0001 7.99944C11.2654 7.99944 11.5199 8.10486 11.7076 8.2925C11.8952 8.48014 12.0006 8.73464 12.0006 9C12.0006 9.26536 11.8952 9.51986 11.7076 9.7075L9.91382 11.5L11.7076 13.2925C11.8952 13.4801 12.0006 13.7346 12.0006 14C12.0006 14.2654 11.8952 14.5199 11.7076 14.7075C11.5199 14.8951 11.2654 15.0006 11.0001 15.0006C10.7347 15.0006 10.4802 14.8951 10.2926 14.7075L8.50007 12.9137L6.70757 14.7075C6.51993 14.8951 6.26543 15.0006 6.00007 15.0006C5.7347 15.0006 5.48021 14.8951 5.29257 14.7075C5.10493 14.5199 4.99951 14.2654 4.99951 14C4.99951 13.7346 5.10493 13.4801 5.29257 13.2925ZM28.7076 25.2925C28.8005 25.3854 28.8742 25.4957 28.9245 25.6171C28.9747 25.7385 29.0006 25.8686 29.0006 26C29.0006 26.1314 28.9747 26.2615 28.9245 26.3829C28.8742 26.5043 28.8005 26.6146 28.7076 26.7075C28.6147 26.8004 28.5044 26.8741 28.383 26.9244C28.2616 26.9747 28.1315 27.0006 28.0001 27.0006C27.8687 27.0006 27.7386 26.9747 27.6172 26.9244C27.4958 26.8741 27.3855 26.8004 27.2926 26.7075L25.5001 24.9137L23.7076 26.7075C23.5199 26.8951 23.2654 27.0006 23.0001 27.0006C22.7347 27.0006 22.4802 26.8951 22.2926 26.7075C22.1049 26.5199 21.9995 26.2654 21.9995 26C21.9995 25.7346 22.1049 25.4801 22.2926 25.2925L24.0863 23.5L22.2926 21.7075C22.1049 21.5199 21.9995 21.2654 21.9995 21C21.9995 20.7346 22.1049 20.4801 22.2926 20.2925C22.4802 20.1049 22.7347 19.9994 23.0001 19.9994C23.2654 19.9994 23.5199 20.1049 23.7076 20.2925L25.5001 22.0863L27.2926 20.2925C27.4802 20.1049 27.7347 19.9994 28.0001 19.9994C28.2654 19.9994 28.5199 20.1049 28.7076 20.2925C28.8952 20.4801 29.0006 20.7346 29.0006 21C29.0006 21.2654 28.8952 21.5199 28.7076 21.7075L26.9138 23.5L28.7076 25.2925ZM23.0588 14.1038C22.2863 16.895 19.8938 19.3075 17.2426 19.97C17.1632 19.9897 17.0818 19.9998 17.0001 20C16.7562 19.9995 16.5209 19.91 16.3385 19.7482C16.156 19.5865 16.039 19.3636 16.0093 19.1216C15.9797 18.8795 16.0395 18.635 16.1775 18.434C16.3156 18.2329 16.5223 18.0893 16.7588 18.03C18.7126 17.5413 20.5526 15.6663 21.1338 13.57C21.5326 12.1325 21.5363 9.945 19.2951 7.7075L19.0001 7.41375V10C19.0001 10.2652 18.8947 10.5196 18.7072 10.7071C18.5196 10.8946 18.2653 11 18.0001 11C17.7349 11 17.4805 10.8946 17.293 10.7071C17.1054 10.5196 17.0001 10.2652 17.0001 10V5C17.0001 4.73478 17.1054 4.48043 17.293 4.29289C17.4805 4.10536 17.7349 4 18.0001 4H23.0001C23.2653 4 23.5196 4.10536 23.7072 4.29289C23.8947 4.48043 24.0001 4.73478 24.0001 5C24.0001 5.26522 23.8947 5.51957 23.7072 5.70711C23.5196 5.89464 23.2653 6 23.0001 6H20.4138L20.7076 6.2925C22.9876 8.57375 23.8226 11.3475 23.0588 14.1038Z" fill="black"/>
</svg>
