<svg width="24" height="27" viewBox="0 0 24 27" fill="none" xmlns="http://www.w3.org/2000/svg">
<path d="M0 27.0001V0H11.6872C14.1043 0 16.1872 0.398573 17.9358 1.19572C19.6844 1.96715 21.0344 3.08573 21.9858 4.55145C22.9372 6.01717 23.413 7.76575 23.413 9.79719C23.413 11.8029 22.9372 13.5386 21.9858 15.0044C21.0344 16.4444 19.6844 17.5501 17.9358 18.3215C16.1872 19.0929 14.1043 19.4787 11.6872 19.4787H3.47144L6.2486 16.7401V27.0001H0ZM17.1644 27.0001L10.4143 17.2029H17.0872L23.9144 27.0001H17.1644ZM6.2486 17.4344L3.47144 14.5029H11.34C13.2686 14.5029 14.7086 14.0915 15.6601 13.2686C16.6115 12.4201 17.0872 11.2629 17.0872 9.79719C17.0872 8.30575 16.6115 7.1486 15.6601 6.32574C14.7086 5.50288 13.2686 5.09145 11.34 5.09145H3.47144L6.2486 2.12144V17.4344Z" fill="white"/>
</svg>
