<svg width="273" height="24" viewBox="0 0 273 24" fill="none" xmlns="http://www.w3.org/2000/svg">
<path d="M0 23.6022V0.397789H10.0556C12.1353 0.397789 13.9274 0.74033 15.4319 1.42541C16.9364 2.0884 18.0979 3.04972 18.9165 4.30939C19.7351 5.56906 20.1444 7.07182 20.1444 8.81768C20.1444 10.5414 19.7351 12.0331 18.9165 13.2928C18.0979 14.5304 16.9364 15.4807 15.4319 16.1436C13.9274 16.8066 12.1353 17.1381 10.0556 17.1381H2.98682L5.37628 14.7845V23.6022H0ZM14.7682 23.6022L8.96046 15.1823H14.7018L20.5759 23.6022H14.7682ZM5.37628 15.3812L2.98682 12.8619H9.75694C11.4163 12.8619 12.6553 12.5083 13.4739 11.8011C14.2925 11.0718 14.7018 10.0773 14.7018 8.81768C14.7018 7.53591 14.2925 6.54144 13.4739 5.83425C12.6553 5.12707 11.4163 4.77348 9.75694 4.77348H2.98682L5.37628 2.22099V15.3812Z" fill="black"/>
<path d="M24.404 23.6022V0.397789H29.7803V23.6022H24.404Z" fill="black"/>
<path d="M42.1655 23.6022L32.1431 0.397789H37.9508L46.7121 20.9503H43.2938L52.1879 0.397789H57.531L47.4754 23.6022H42.1655Z" fill="black"/>
<path d="M59.4706 23.6022V0.397789H64.8469V23.6022H59.4706Z" fill="black"/>
<path d="M75.3049 9.74586H86.4889V13.9227H75.3049V9.74586ZM75.7032 19.2928H88.3474V23.6022H70.3601V0.397789H87.916V4.70718H75.7032V19.2928Z" fill="black"/>
<path d="M92.6251 23.6022V0.397789H102.681C104.76 0.397789 106.553 0.74033 108.057 1.42541C109.561 2.0884 110.723 3.04972 111.542 4.30939C112.36 5.56906 112.77 7.07182 112.77 8.81768C112.77 10.5414 112.36 12.0331 111.542 13.2928C110.723 14.5304 109.561 15.4807 108.057 16.1436C106.553 16.8066 104.76 17.1381 102.681 17.1381H95.6119L98.0014 14.7845V23.6022H92.6251ZM107.393 23.6022L101.586 15.1823H107.327L113.201 23.6022H107.393ZM98.0014 15.3812L95.6119 12.8619H102.382C104.041 12.8619 105.28 12.5083 106.099 11.8011C106.918 11.0718 107.327 10.0773 107.327 8.81768C107.327 7.53591 106.918 6.54144 106.099 5.83425C105.28 5.12707 104.041 4.77348 102.382 4.77348H95.6119L98.0014 2.22099V15.3812Z" fill="black"/>
<path d="M121.974 9.74586H133.158V13.9227H121.974V9.74586ZM122.372 19.2928H135.016V23.6022H117.029V0.397789H134.585V4.70718H122.372V19.2928Z" fill="black"/>
<path d="M159.91 24C158.074 24 156.381 23.7127 154.832 23.1381C153.306 22.5414 151.967 21.7017 150.817 20.6188C149.688 19.5359 148.803 18.2652 148.162 16.8066C147.542 15.3481 147.233 13.7459 147.233 12C147.233 10.2541 147.542 8.65193 148.162 7.19337C148.803 5.73481 149.699 4.46409 150.85 3.38122C152 2.29834 153.35 1.46961 154.899 0.895026C156.447 0.298342 158.151 0 160.01 0C162.067 0 163.915 0.342541 165.552 1.02762C167.211 1.71271 168.605 2.70718 169.733 4.01105L166.282 7.19337C165.441 6.30939 164.523 5.65746 163.527 5.23757C162.532 4.79558 161.448 4.57459 160.275 4.57459C159.147 4.57459 158.118 4.75138 157.189 5.10497C156.259 5.45856 155.452 5.96685 154.766 6.62983C154.102 7.29282 153.582 8.07735 153.206 8.98343C152.852 9.8895 152.675 10.895 152.675 12C152.675 13.0829 152.852 14.0773 153.206 14.9834C153.582 15.8895 154.102 16.6851 154.766 17.3702C155.452 18.0331 156.248 18.5414 157.155 18.895C158.085 19.2486 159.102 19.4254 160.209 19.4254C161.271 19.4254 162.299 19.2597 163.295 18.9282C164.313 18.5746 165.297 17.989 166.249 17.1713L169.302 21.0497C168.041 22 166.569 22.7293 164.888 23.2376C163.229 23.7459 161.569 24 159.91 24ZM164.39 20.3536V11.6354H169.302V21.0497L164.39 20.3536Z" fill="black"/>
<path d="M174.296 23.6022V0.397789H184.352C186.431 0.397789 188.223 0.74033 189.728 1.42541C191.232 2.0884 192.394 3.04972 193.212 4.30939C194.031 5.56906 194.44 7.07182 194.44 8.81768C194.44 10.5414 194.031 12.0331 193.212 13.2928C192.394 14.5304 191.232 15.4807 189.728 16.1436C188.223 16.8066 186.431 17.1381 184.352 17.1381H177.283L179.672 14.7845V23.6022H174.296ZM189.064 23.6022L183.256 15.1823H188.998L194.872 23.6022H189.064ZM179.672 15.3812L177.283 12.8619H184.053C185.712 12.8619 186.951 12.5083 187.77 11.8011C188.588 11.0718 188.998 10.0773 188.998 8.81768C188.998 7.53591 188.588 6.54144 187.77 5.83425C186.951 5.12707 185.712 4.77348 184.053 4.77348H177.283L179.672 2.22099V15.3812Z" fill="black"/>
<path d="M209.984 24C208.147 24 206.444 23.7017 204.873 23.105C203.324 22.5083 201.974 21.6685 200.824 20.5856C199.696 19.5028 198.811 18.232 198.169 16.7735C197.55 15.3149 197.24 13.7238 197.24 12C197.24 10.2762 197.55 8.68508 198.169 7.22652C198.811 5.76796 199.707 4.49724 200.857 3.41436C202.008 2.33149 203.357 1.49171 204.906 0.895026C206.455 0.298342 208.136 0 209.95 0C211.787 0 213.468 0.298342 214.995 0.895026C216.543 1.49171 217.882 2.33149 219.01 3.41436C220.161 4.49724 221.057 5.76796 221.699 7.22652C222.34 8.66298 222.661 10.2541 222.661 12C222.661 13.7238 222.34 15.326 221.699 16.8066C221.057 18.2652 220.161 19.5359 219.01 20.6188C217.882 21.6796 216.543 22.5083 214.995 23.105C213.468 23.7017 211.798 24 209.984 24ZM209.95 19.4254C210.99 19.4254 211.942 19.2486 212.804 18.895C213.689 18.5414 214.464 18.0331 215.128 17.3702C215.791 16.7072 216.3 15.9227 216.654 15.0166C217.03 14.1105 217.218 13.105 217.218 12C217.218 10.895 217.03 9.8895 216.654 8.98343C216.3 8.07735 215.791 7.29282 215.128 6.62983C214.486 5.96685 213.723 5.45856 212.838 5.10497C211.953 4.75138 210.99 4.57459 209.95 4.57459C208.911 4.57459 207.948 4.75138 207.063 5.10497C206.2 5.45856 205.437 5.96685 204.773 6.62983C204.109 7.29282 203.59 8.07735 203.213 8.98343C202.859 9.8895 202.682 10.895 202.682 12C202.682 13.0829 202.859 14.0884 203.213 15.0166C203.59 15.9227 204.098 16.7072 204.74 17.3702C205.404 18.0331 206.178 18.5414 207.063 18.895C207.948 19.2486 208.911 19.4254 209.95 19.4254Z" fill="black"/>
<path d="M237.023 24C233.726 24 231.148 23.0829 229.29 21.2486C227.432 19.4144 226.502 16.7956 226.502 13.3923V0.397789H231.879V13.1934C231.879 15.4033 232.332 16.9945 233.239 17.9669C234.146 18.9392 235.419 19.4254 237.056 19.4254C238.693 19.4254 239.965 18.9392 240.872 17.9669C241.779 16.9945 242.233 15.4033 242.233 13.1934V0.397789H247.543V13.3923C247.543 16.7956 246.614 19.4144 244.755 21.2486C242.897 23.0829 240.319 24 237.023 24Z" fill="black"/>
<path d="M252.856 23.6022V0.397789H262.911C264.991 0.397789 266.783 0.74033 268.287 1.42541C269.792 2.0884 270.953 3.04972 271.772 4.30939C272.591 5.56906 273 7.07182 273 8.81768C273 10.5414 272.591 12.0331 271.772 13.2928C270.953 14.5525 269.792 15.5249 268.287 16.2099C266.783 16.8729 264.991 17.2044 262.911 17.2044H255.842L258.232 14.7845V23.6022H252.856ZM258.232 15.3812L255.842 12.8287H262.612C264.272 12.8287 265.511 12.4751 266.329 11.768C267.148 11.0608 267.557 10.0773 267.557 8.81768C267.557 7.53591 267.148 6.54144 266.329 5.83425C265.511 5.12707 264.272 4.77348 262.612 4.77348H255.842L258.232 2.22099V15.3812Z" fill="black"/>
</svg>
